<svg width="421" height="356" viewBox="0 0 421 356" fill="none" xmlns="http://www.w3.org/2000/svg">
<g filter="url(#filter0_ddd_16357_127349)">
<rect x="-0.645924" y="0.645924" width="151.089" height="161.235" rx="22.3541" transform="matrix(-1 0 0 1 330.592 82.1572)" stroke="#D9DFE8" stroke-width="1.29185"/>
<path d="M215.839 102.19C216.197 102.189 216.556 102.188 216.914 102.186C217.892 102.183 218.871 102.184 219.849 102.186C220.906 102.187 221.964 102.184 223.022 102.181C225.091 102.177 227.161 102.177 229.23 102.178C230.913 102.179 232.596 102.179 234.278 102.178C234.638 102.177 234.638 102.177 235.005 102.177C235.493 102.177 235.98 102.176 236.467 102.176C241.033 102.173 245.6 102.174 250.166 102.177C254.339 102.179 258.512 102.176 262.685 102.17C266.975 102.164 271.265 102.162 275.554 102.164C277.961 102.165 280.367 102.164 282.773 102.16C284.822 102.156 286.871 102.156 288.92 102.16C289.964 102.162 291.008 102.163 292.052 102.159C293.01 102.156 293.968 102.157 294.926 102.162C295.27 102.163 295.615 102.162 295.959 102.159C300.565 102.128 304.407 103.614 307.732 106.818C311.084 110.681 311.902 114.795 311.88 119.739C311.88 120.172 311.881 120.604 311.882 121.037C311.885 122.217 311.883 123.398 311.88 124.579C311.878 125.856 311.88 127.132 311.882 128.409C311.884 130.906 311.882 133.404 311.88 135.902C311.876 138.813 311.877 141.724 311.877 144.635C311.878 149.831 311.875 155.027 311.871 160.223C311.866 165.26 311.864 170.297 311.866 175.334C311.867 180.824 311.867 186.313 311.864 191.803C311.864 192.389 311.864 192.975 311.863 193.561C311.863 193.993 311.863 193.993 311.863 194.434C311.862 196.461 311.862 198.488 311.863 200.515C311.863 202.988 311.862 205.46 311.858 207.932C311.857 209.192 311.856 210.453 311.857 211.713C311.858 212.869 311.857 214.024 311.854 215.18C311.853 215.596 311.853 216.012 311.854 216.429C311.868 222.678 311.868 222.678 311.074 224.265C309.993 224.625 309.096 224.726 307.971 224.504C307.418 224.116 307.418 224.116 306.868 223.592C306.661 223.397 306.455 223.202 306.242 223.001C305.098 221.879 303.963 220.751 302.839 219.61C302.374 219.139 301.909 218.67 301.444 218.2C301.14 217.892 301.14 217.892 300.83 217.579C300.208 216.986 299.966 216.88 299.109 216.76C297.144 216.982 295.993 218.564 294.756 219.983C293.985 220.841 293.18 221.659 292.365 222.475C292.22 222.621 292.075 222.767 291.926 222.917C291.719 223.123 291.719 223.123 291.509 223.332C291.386 223.455 291.264 223.577 291.138 223.703C290.418 224.36 289.902 224.591 288.948 224.638C288.755 224.653 288.563 224.668 288.364 224.684C286.235 224.123 284.341 221.423 282.816 219.879C282.303 219.359 281.789 218.84 281.274 218.321C281.157 218.202 281.04 218.084 280.92 217.961C280.15 217.186 279.799 216.897 278.699 216.745C276.455 216.793 274.296 219.966 272.791 221.49C272.277 222.01 271.763 222.529 271.248 223.047C271.131 223.166 271.015 223.285 270.894 223.407C270.087 224.221 269.606 224.555 268.464 224.653C267.035 224.63 266.393 224.014 265.412 223.033C265.198 222.809 264.984 222.586 264.764 222.355C264.501 222.096 264.238 221.838 263.974 221.58C261.795 219.447 261.795 219.447 260.825 218.267C260.01 217.33 259.463 216.946 258.244 216.716C256.02 217.092 254.055 219.916 252.5 221.49C251.987 222.01 251.472 222.529 250.958 223.047C250.841 223.166 250.724 223.285 250.604 223.407C249.776 224.241 249.314 224.551 248.143 224.623C247.948 224.64 247.753 224.657 247.552 224.675C245.424 224.148 243.514 221.415 241.997 219.879C241.483 219.359 240.969 218.84 240.454 218.321C240.337 218.202 240.221 218.084 240.1 217.961C239.385 217.241 239.017 216.903 237.998 216.76C236.034 216.982 234.883 218.564 233.645 219.983C232.874 220.841 232.07 221.659 231.255 222.475C231.11 222.621 230.965 222.767 230.815 222.917C230.609 223.123 230.609 223.123 230.399 223.332C230.215 223.516 230.215 223.516 230.027 223.703C229.072 224.575 228.39 224.604 227.154 224.582C226.338 224.473 225.924 224.15 225.376 223.549C225.088 222.972 225.107 222.61 225.105 221.966C225.104 221.731 225.103 221.497 225.102 221.255C225.102 220.995 225.101 220.736 225.101 220.469C225.1 220.194 225.099 219.92 225.098 219.637C225.096 218.874 225.094 218.11 225.093 217.347C225.092 216.524 225.089 215.701 225.086 214.878C225.082 213.451 225.078 212.024 225.075 210.597C225.071 208.531 225.065 206.465 225.059 204.399C225.049 201.042 225.039 197.686 225.031 194.33C225.03 194.028 225.03 194.028 225.029 193.721C225.025 192.295 225.022 190.869 225.018 189.443C225.014 187.818 225.01 186.193 225.006 184.568C225.005 184.268 225.005 184.268 225.004 183.962C224.996 180.622 224.986 177.281 224.976 173.94C224.97 171.881 224.964 169.821 224.96 167.762C224.957 166.348 224.953 164.935 224.948 163.521C224.946 162.707 224.944 161.892 224.943 161.078C224.941 160.192 224.938 159.307 224.935 158.422C224.935 158.167 224.935 157.913 224.935 157.651C224.927 155.975 224.822 154.32 224.66 152.651C224.453 152.769 224.247 152.887 224.033 153.009C223.169 153.393 222.726 153.503 221.796 153.367C220.624 152.682 219.723 151.832 218.778 150.865C218.633 150.719 218.488 150.573 218.338 150.422C217.878 149.957 217.42 149.492 216.962 149.026C216.5 148.557 216.038 148.089 215.575 147.622C215.288 147.332 215.001 147.041 214.716 146.75C213.789 145.775 213.789 145.775 212.545 145.415C210.92 145.571 209.874 146.86 208.811 147.992C208.521 148.292 208.231 148.593 207.94 148.893C207.489 149.362 207.039 149.833 206.592 150.307C206.158 150.768 205.717 151.223 205.275 151.677C205.144 151.819 205.014 151.961 204.879 152.107C203.977 153.021 203.278 153.305 201.998 153.407C201.168 153.34 200.683 152.949 200.073 152.412C199.513 151.574 199.535 151.235 199.533 150.243C199.531 149.939 199.53 149.635 199.528 149.321C199.528 148.983 199.529 148.646 199.53 148.308C199.529 147.952 199.527 147.597 199.526 147.242C199.523 146.276 199.523 145.309 199.523 144.343C199.524 143.535 199.522 142.727 199.521 141.919C199.519 140.011 199.518 138.103 199.52 136.195C199.521 134.232 199.518 132.268 199.513 130.305C199.509 128.616 199.508 126.928 199.508 125.239C199.509 124.232 199.508 123.225 199.505 122.218C199.502 121.269 199.502 120.32 199.506 119.37C199.506 119.024 199.505 118.677 199.503 118.331C199.48 113.963 200.642 110.276 203.531 106.946C207.003 103.442 211.011 102.168 215.839 102.19ZM206.763 111.659C206.26 112.335 205.953 112.961 205.638 113.741C205.538 113.982 205.439 114.223 205.336 114.472C204.965 115.512 204.817 116.46 204.818 117.562C204.818 117.796 204.818 118.031 204.817 118.273C204.818 118.527 204.819 118.782 204.82 119.044C204.82 119.314 204.82 119.585 204.82 119.863C204.82 120.756 204.822 121.648 204.824 122.541C204.824 123.16 204.824 123.779 204.825 124.398C204.825 125.861 204.827 127.323 204.83 128.786C204.832 130.451 204.834 132.117 204.835 133.782C204.837 137.207 204.842 140.632 204.847 144.057C204.961 143.959 205.076 143.861 205.194 143.759C205.344 143.63 205.494 143.501 205.649 143.368C205.798 143.24 205.947 143.112 206.101 142.98C208.321 141.091 210.198 140.131 213.157 140.175C215.667 140.384 217.214 141.608 218.931 143.341C219.246 143.654 219.561 143.966 219.877 144.277C220.76 145.154 221.637 146.036 222.512 146.922C222.771 146.704 223.029 146.485 223.288 146.266C223.432 146.144 223.576 146.022 223.724 145.896C223.875 145.762 224.027 145.628 224.183 145.49C224.347 145.376 224.512 145.262 224.682 145.145C225.408 144.173 225.267 143.182 225.254 142C225.254 141.741 225.255 141.483 225.256 141.217C225.258 140.361 225.253 139.506 225.248 138.65C225.247 138.054 225.247 137.458 225.247 136.862C225.246 135.611 225.242 134.36 225.236 133.109C225.227 131.511 225.226 129.914 225.226 128.317C225.226 127.085 225.223 125.852 225.22 124.62C225.218 124.032 225.218 123.443 225.217 122.855C225.305 115.983 225.305 115.983 221.904 110.223C219.649 108.144 217.071 107.376 214.045 107.451C210.907 107.76 208.776 109.335 206.763 111.659ZM226.809 107.534C226.958 107.797 227.108 108.059 227.263 108.329C229.487 112.221 230.297 115.704 230.274 120.128C230.276 120.542 230.278 120.955 230.28 121.369C230.285 122.496 230.284 123.622 230.282 124.748C230.28 125.967 230.285 127.186 230.288 128.405C230.294 130.512 230.296 132.62 230.296 134.728C230.295 137.776 230.3 140.823 230.306 143.871C230.316 148.816 230.322 153.762 230.325 158.707C230.327 163.509 230.332 168.311 230.34 173.113C230.34 173.409 230.341 173.706 230.341 174.011C230.343 175.498 230.346 176.984 230.348 178.471C230.368 190.792 230.381 203.112 230.389 215.433C230.651 215.21 230.913 214.986 231.175 214.763C231.321 214.639 231.467 214.514 231.617 214.386C232.039 214.019 232.445 213.639 232.851 213.254C234.652 211.744 236.523 211.448 238.836 211.525C241.316 211.779 242.751 213.001 244.473 214.716C244.615 214.857 244.757 214.997 244.904 215.142C245.881 216.108 246.85 217.081 247.815 218.058C248.647 217.704 249.159 217.236 249.78 216.584C249.972 216.386 250.164 216.189 250.361 215.985C250.759 215.571 251.156 215.156 251.551 214.739C253.537 212.7 255.237 211.595 258.11 211.539C261.377 211.535 263.083 213.037 265.308 215.238C265.645 215.576 265.98 215.914 266.315 216.253C266.489 216.428 266.663 216.602 266.841 216.782C267.263 217.207 267.685 217.632 268.106 218.058C268.913 217.711 269.421 217.269 270.027 216.636C270.209 216.449 270.391 216.262 270.579 216.07C270.956 215.678 271.333 215.286 271.709 214.893C273.549 213.009 275.321 211.585 278.062 211.522C281.591 211.533 283.354 212.779 285.771 215.194C286.043 215.463 286.316 215.733 286.589 216.002C287.276 216.683 287.957 217.369 288.635 218.058C289.494 217.697 290.02 217.194 290.66 216.524C290.864 216.314 291.068 216.104 291.278 215.889C291.701 215.448 292.124 215.007 292.546 214.564C294.491 212.57 296.111 211.594 298.93 211.539C301.618 211.541 303.135 212.359 305.052 214.21C305.527 214.663 306.011 215.045 306.539 215.433C306.56 202.865 306.577 190.297 306.587 177.73C306.589 176.246 306.59 174.762 306.591 173.278C306.591 172.982 306.592 172.687 306.592 172.382C306.596 167.6 306.603 162.817 306.612 158.035C306.621 153.127 306.626 148.219 306.628 143.311C306.63 140.283 306.634 137.255 306.642 134.227C306.647 132.15 306.648 130.073 306.647 127.996C306.646 126.798 306.647 125.6 306.652 124.402C306.657 123.304 306.657 122.206 306.654 121.108C306.654 120.712 306.655 120.316 306.658 119.92C306.684 116.259 306.066 113.217 303.54 110.444C300.978 108.145 298.675 107.46 295.273 107.477C294.98 107.477 294.687 107.476 294.385 107.476C293.575 107.475 292.765 107.477 291.955 107.479C291.081 107.481 290.206 107.48 289.332 107.48C287.817 107.48 286.303 107.481 284.789 107.484C282.599 107.488 280.41 107.489 278.22 107.49C274.668 107.491 271.115 107.494 267.563 107.498C264.112 107.503 260.662 107.506 257.211 107.508C256.999 107.508 256.786 107.508 256.567 107.509C255.499 107.509 254.432 107.51 253.365 107.51C244.513 107.515 235.661 107.524 226.809 107.534Z" fill="url(#paint0_linear_16357_127349)"/>
<path d="M240.19 155.722C240.394 155.72 240.598 155.719 240.808 155.718C241.034 155.718 241.259 155.718 241.491 155.718C241.849 155.716 241.849 155.716 242.214 155.714C243.018 155.711 243.822 155.71 244.626 155.708C245.2 155.706 245.774 155.704 246.349 155.702C248.076 155.697 249.803 155.693 251.53 155.69C252.018 155.689 252.505 155.688 252.993 155.687C256.021 155.681 259.048 155.676 262.075 155.673C262.777 155.672 263.478 155.672 264.179 155.671C264.354 155.671 264.528 155.67 264.708 155.67C267.532 155.667 270.357 155.659 273.182 155.649C276.081 155.639 278.98 155.634 281.879 155.632C283.507 155.632 285.135 155.629 286.763 155.621C288.295 155.613 289.826 155.612 291.357 155.615C291.92 155.615 292.482 155.613 293.045 155.609C293.812 155.603 294.579 155.605 295.346 155.609C295.569 155.606 295.793 155.603 296.024 155.599C297.099 155.612 297.559 155.641 298.436 156.315C299.098 157.218 299.169 157.865 299.174 158.955C299.176 159.357 299.176 159.357 299.179 159.767C299.179 160.062 299.18 160.356 299.181 160.659C299.182 160.969 299.184 161.279 299.185 161.598C299.191 162.625 299.193 163.653 299.195 164.681C299.196 165.035 299.197 165.389 299.198 165.743C299.203 167.406 299.206 169.069 299.208 170.732C299.211 172.651 299.217 174.57 299.227 176.489C299.234 177.973 299.237 179.456 299.238 180.94C299.239 181.826 299.241 182.712 299.247 183.598C299.253 184.587 299.252 185.575 299.251 186.564C299.255 187.003 299.255 187.003 299.26 187.451C299.244 189.977 299.244 189.977 298.184 191.084C297.505 191.493 297.005 191.621 296.217 191.623C295.915 191.625 295.915 191.625 295.606 191.627C295.386 191.627 295.166 191.626 294.94 191.625C294.705 191.626 294.47 191.627 294.228 191.628C293.439 191.631 292.651 191.631 291.862 191.631C291.297 191.632 290.733 191.634 290.168 191.635C288.792 191.639 287.417 191.641 286.041 191.641C284.923 191.641 283.804 191.642 282.686 191.644C279.515 191.648 276.345 191.65 273.174 191.65C272.918 191.65 272.918 191.65 272.656 191.65C272.485 191.65 272.314 191.65 272.137 191.65C269.364 191.649 266.59 191.654 263.816 191.661C260.968 191.668 258.12 191.671 255.272 191.671C253.673 191.67 252.074 191.672 250.476 191.677C248.972 191.681 247.468 191.681 245.965 191.678C245.413 191.678 244.86 191.679 244.308 191.682C243.555 191.685 242.802 191.683 242.049 191.679C241.83 191.682 241.611 191.684 241.385 191.687C240.071 191.673 239.301 191.496 238.267 190.606C237.729 189.8 237.729 189.526 237.725 188.581C237.723 188.309 237.721 188.037 237.719 187.757C237.72 187.458 237.72 187.159 237.72 186.852C237.718 186.537 237.717 186.223 237.715 185.899C237.711 185.035 237.71 184.172 237.709 183.309C237.709 182.588 237.707 181.868 237.706 181.147C237.702 179.446 237.7 177.745 237.701 176.044C237.701 174.291 237.696 172.537 237.689 170.783C237.682 169.277 237.68 167.771 237.68 166.265C237.68 165.366 237.679 164.467 237.674 163.567C237.669 162.721 237.669 161.875 237.673 161.029C237.673 160.571 237.669 160.113 237.665 159.656C237.676 158.14 237.684 157.128 238.744 155.993C239.288 155.721 239.587 155.724 240.19 155.722ZM243.041 161.006C243.041 162.582 243.041 164.157 243.041 165.78C250.525 165.78 258.008 165.78 265.719 165.78C265.719 164.205 265.719 162.629 265.719 161.006C258.235 161.006 250.751 161.006 243.041 161.006ZM270.97 161.006C270.97 162.582 270.97 164.157 270.97 165.78C278.533 165.78 286.095 165.78 293.887 165.78C293.887 164.205 293.887 162.629 293.887 161.006C286.324 161.006 278.762 161.006 270.97 161.006ZM243.041 171.032C243.041 172.686 243.041 174.341 243.041 176.045C250.525 176.045 258.008 176.045 265.719 176.045C265.719 174.391 265.719 172.736 265.719 171.032C258.235 171.032 250.751 171.032 243.041 171.032ZM270.97 171.032C270.97 172.686 270.97 174.341 270.97 176.045C278.533 176.045 286.095 176.045 293.887 176.045C293.887 174.391 293.887 172.736 293.887 171.032C286.324 171.032 278.762 171.032 270.97 171.032ZM243.041 181.297C243.041 182.951 243.041 184.605 243.041 186.31C250.525 186.31 258.008 186.31 265.719 186.31C265.719 184.655 265.719 183.001 265.719 181.297C258.235 181.297 250.751 181.297 243.041 181.297ZM270.97 181.297C270.97 182.951 270.97 184.605 270.97 186.31C278.533 186.31 286.095 186.31 293.887 186.31C293.887 184.655 293.887 183.001 293.887 181.297C286.324 181.297 278.762 181.297 270.97 181.297Z" fill="url(#paint1_linear_16357_127349)"/>
<path d="M246.383 114.934C247.696 115.651 247.696 115.651 248.054 116.367C248.071 116.976 248.076 117.578 248.069 118.187C248.068 118.356 248.067 118.524 248.066 118.698C248.063 119.114 248.059 119.531 248.054 119.947C248.279 119.936 248.503 119.925 248.735 119.914C251.466 119.835 251.466 119.835 252.291 120.365C252.924 120.998 253.279 121.473 253.342 122.378C253.325 122.556 253.308 122.734 253.291 122.916C253.278 123.093 253.265 123.27 253.252 123.453C252.952 124.349 252.663 124.655 251.873 125.199C250.81 125.371 249.756 125.366 248.681 125.363C246.165 125.314 246.165 125.314 243.757 125.915C243.331 126.696 243.274 127.21 243.31 128.094C243.551 128.886 243.838 129.215 244.473 129.735C245.108 130.052 245.693 130.07 246.398 130.152C248.71 130.502 250.41 131.482 251.873 133.315C253.064 135.135 253.489 137.157 253.224 139.307C252.698 141.627 251.45 143.442 249.486 144.774C249.093 144.945 248.696 145.108 248.293 145.251C248.289 145.53 248.286 145.809 248.282 146.097C248.271 146.466 248.26 146.836 248.248 147.205C248.247 147.389 248.245 147.573 248.244 147.762C248.204 148.788 248.144 149.198 247.475 150.022C246.606 150.701 246.074 150.824 244.959 150.809C244.189 150.702 243.803 150.34 243.28 149.787C242.726 148.941 242.753 148.215 242.772 147.22C242.777 146.941 242.781 146.662 242.785 146.374C242.791 146.161 242.797 145.948 242.802 145.728C242.595 145.739 242.387 145.751 242.174 145.762C239.646 145.841 239.646 145.841 238.819 145.296C238.053 144.571 237.804 144.21 237.7 143.147C237.723 142.116 238.083 141.513 238.744 140.715C239.374 140.401 239.863 140.438 240.567 140.426C240.838 140.42 241.109 140.413 241.388 140.406C241.958 140.394 242.528 140.383 243.098 140.374C244.595 140.334 245.795 140.291 247.099 139.522C247.581 138.8 247.638 138.66 247.621 137.851C247.619 137.607 247.619 137.607 247.617 137.359C247.59 136.844 247.59 136.844 247.338 136.18C246.422 135.759 245.491 135.637 244.503 135.494C243.222 135.288 242.219 134.978 241.131 134.27C240.987 134.178 240.843 134.086 240.694 133.99C239.16 132.854 238.13 130.888 237.789 129.019C237.558 126.681 237.998 124.581 239.505 122.737C240.14 122.049 240.751 121.672 241.579 121.245C242.152 120.933 242.152 120.933 242.564 120.425C242.739 119.483 242.759 118.675 242.732 117.717C242.816 116.679 243.103 116.21 243.757 115.412C244.641 114.823 245.358 114.772 246.383 114.934Z" fill="url(#paint2_linear_16357_127349)"/>
<path d="M266.283 130.175C266.69 130.172 266.69 130.172 267.106 130.169C267.406 130.168 267.706 130.167 268.014 130.166C268.329 130.164 268.643 130.162 268.967 130.16C270.011 130.154 271.056 130.15 272.101 130.147C272.46 130.146 272.82 130.144 273.179 130.143C274.675 130.138 276.171 130.133 277.666 130.131C279.81 130.127 281.953 130.119 284.097 130.105C285.604 130.096 287.111 130.091 288.618 130.09C289.518 130.089 290.418 130.086 291.318 130.079C292.166 130.071 293.013 130.07 293.86 130.073C294.318 130.073 294.776 130.067 295.234 130.061C297.482 130.077 297.482 130.077 298.365 130.784C299.046 131.576 299.146 132.013 299.196 133.024C299.104 133.868 298.734 134.36 298.184 134.986C297.377 135.524 297.103 135.524 296.159 135.528C295.75 135.531 295.75 135.531 295.334 135.534C295.035 135.534 294.737 135.533 294.429 135.533C294.114 135.535 293.8 135.536 293.476 135.538C292.613 135.542 291.75 135.543 290.886 135.544C290.166 135.544 289.445 135.546 288.724 135.548C287.023 135.551 285.322 135.553 283.622 135.552C281.868 135.552 280.114 135.557 278.361 135.565C276.855 135.571 275.348 135.573 273.842 135.573C272.943 135.573 272.044 135.574 271.144 135.579C270.298 135.584 269.452 135.584 268.606 135.581C268.148 135.58 267.691 135.584 267.233 135.588C265.717 135.577 264.705 135.569 263.57 134.509C263.127 133.622 263.192 132.61 263.332 131.644C264.24 130.473 264.848 130.183 266.283 130.175Z" fill="url(#paint3_linear_16357_127349)"/>
<path d="M266.532 119.912C266.8 119.911 267.068 119.909 267.344 119.907C267.639 119.906 267.933 119.906 268.236 119.905C268.546 119.904 268.856 119.902 269.175 119.9C270.203 119.895 271.23 119.893 272.258 119.891C272.612 119.89 272.966 119.889 273.32 119.888C274.983 119.883 276.646 119.88 278.309 119.878C280.228 119.875 282.147 119.869 284.066 119.859C285.55 119.852 287.034 119.849 288.517 119.848C289.403 119.847 290.289 119.845 291.175 119.839C292.164 119.833 293.152 119.834 294.141 119.835C294.58 119.831 294.58 119.831 295.029 119.826C296.542 119.835 297.523 119.856 298.661 120.902C299.14 121.587 299.202 122.093 299.124 122.916C299.111 123.093 299.098 123.27 299.085 123.453C298.81 124.272 298.452 124.776 297.706 125.199C296.661 125.382 295.624 125.36 294.566 125.35C294.243 125.351 293.92 125.353 293.597 125.355C292.722 125.359 291.847 125.356 290.972 125.352C290.056 125.348 289.14 125.35 288.223 125.351C286.685 125.352 285.146 125.348 283.607 125.342C281.829 125.334 280.051 125.334 278.273 125.338C276.561 125.342 274.85 125.34 273.138 125.336C272.41 125.335 271.682 125.335 270.954 125.337C270.097 125.338 269.24 125.335 268.382 125.329C267.918 125.327 267.454 125.329 266.99 125.331C266.713 125.328 266.435 125.325 266.15 125.322C265.91 125.321 265.669 125.321 265.422 125.32C264.585 125.166 264.181 124.825 263.57 124.244C263.127 123.357 263.193 122.346 263.332 121.38C264.26 120.15 265.046 119.919 266.532 119.912Z" fill="url(#paint4_linear_16357_127349)"/>
<path d="M241.319 196.266C241.479 196.265 241.64 196.263 241.806 196.261C242.336 196.257 242.867 196.256 243.397 196.255C243.767 196.254 244.137 196.252 244.507 196.251C245.282 196.248 246.057 196.247 246.832 196.247C247.823 196.247 248.814 196.241 249.805 196.232C250.569 196.227 251.332 196.226 252.096 196.226C252.462 196.226 252.827 196.224 253.192 196.22C253.704 196.215 254.216 196.217 254.728 196.22C255.164 196.219 255.164 196.219 255.609 196.217C256.574 196.36 257.085 196.683 257.841 197.29C258.43 198.174 258.481 198.891 258.319 199.916C257.602 201.229 257.602 201.229 256.886 201.587C256.335 201.615 255.782 201.628 255.229 201.633C254.974 201.636 254.974 201.636 254.713 201.639C254.148 201.645 253.583 201.649 253.017 201.652C252.825 201.654 252.632 201.655 252.433 201.656C251.411 201.663 250.39 201.667 249.369 201.671C248.314 201.675 247.259 201.685 246.204 201.698C245.393 201.706 244.582 201.708 243.771 201.71C243.382 201.711 242.993 201.715 242.605 201.721C242.06 201.728 241.516 201.728 240.971 201.726C240.506 201.729 240.506 201.729 240.033 201.732C239.015 201.55 238.671 201.184 238.028 200.394C237.645 199.628 237.673 198.837 237.789 198.007C238.701 196.508 239.628 196.277 241.319 196.266Z" fill="url(#paint5_linear_16357_127349)"/>
<path d="M266.421 140.431C266.591 140.429 266.762 140.427 266.937 140.425C267.502 140.419 268.067 140.415 268.633 140.411C268.922 140.41 268.922 140.41 269.217 140.408C270.239 140.401 271.26 140.397 272.281 140.393C273.336 140.389 274.391 140.379 275.446 140.366C276.257 140.358 277.068 140.356 277.879 140.354C278.268 140.353 278.657 140.349 279.046 140.343C279.59 140.336 280.134 140.336 280.679 140.337C281.144 140.335 281.144 140.335 281.618 140.332C282.636 140.514 282.983 140.876 283.622 141.67C283.894 142.39 283.931 143.054 283.861 143.819C283.381 144.797 282.968 145.346 281.951 145.728C281.21 145.791 281.21 145.791 280.328 145.794C280.167 145.795 280.005 145.796 279.839 145.798C279.308 145.801 278.776 145.801 278.245 145.8C277.874 145.801 277.504 145.802 277.133 145.803C276.357 145.805 275.581 145.805 274.805 145.804C273.812 145.802 272.819 145.806 271.826 145.812C271.061 145.815 270.296 145.816 269.531 145.815C269.165 145.815 268.799 145.816 268.433 145.819C267.92 145.822 267.408 145.82 266.896 145.817C266.459 145.818 266.459 145.818 266.013 145.818C264.998 145.7 264.412 145.295 263.622 144.682C263.113 144.006 263.222 143.309 263.245 142.494C263.365 141.681 263.686 141.262 264.286 140.715C264.993 140.362 265.632 140.439 266.421 140.431Z" fill="url(#paint6_linear_16357_127349)"/>
<g clip-path="url(#clip0_16357_127349)">
<rect width="168.3" height="161.568" rx="34.6964" transform="matrix(-1 0 0 1 257.118 149.049)" fill="white" fill-opacity="0.18"/>
<path d="M166.819 259.702V215.292C166.819 214.507 166.507 213.754 165.952 213.199C165.397 212.644 164.644 212.332 163.859 212.332H149.056C147.485 212.332 145.979 212.956 144.869 214.066C143.758 215.176 143.134 216.683 143.134 218.253V253.78C143.134 255.351 143.758 256.857 144.869 257.967C145.979 259.078 147.485 259.702 149.056 259.702H184.583C186.153 259.702 187.659 259.078 188.77 257.967C189.88 256.857 190.504 255.351 190.504 253.78V238.977C190.504 238.192 190.192 237.439 189.637 236.884C189.082 236.329 188.329 236.017 187.544 236.017H143.134M181.622 200.489H199.386C201.021 200.489 202.347 201.815 202.347 203.45V221.214C202.347 222.849 201.021 224.174 199.386 224.174H181.622C179.987 224.174 178.662 222.849 178.662 221.214V203.45C178.662 201.815 179.987 200.489 181.622 200.489Z" stroke="#25303D" stroke-width="5" stroke-linecap="round" stroke-linejoin="round"/>
</g>
</g>
<defs>
<filter id="filter0_ddd_16357_127349" x="-0.000152588" y="0.000103951" width="420.702" height="406.096" filterUnits="userSpaceOnUse" color-interpolation-filters="sRGB">
<feFlood flood-opacity="0" result="BackgroundImageFix"/>
<feColorMatrix in="SourceAlpha" type="matrix" values="0 0 0 0 0 0 0 0 0 0 0 0 0 0 0 0 0 0 127 0" result="hardAlpha"/>
<feOffset dy="0.442989"/>
<feGaussianBlur stdDeviation="2.95326"/>
<feColorMatrix type="matrix" values="0 0 0 0 0.935 0 0 0 0 0.947 0 0 0 0 0.965 0 0 0 1 0"/>
<feBlend mode="normal" in2="BackgroundImageFix" result="effect1_dropShadow_16357_127349"/>
<feColorMatrix in="SourceAlpha" type="matrix" values="0 0 0 0 0 0 0 0 0 0 0 0 0 0 0 0 0 0 127 0" result="hardAlpha"/>
<feOffset dy="1.48791"/>
<feGaussianBlur stdDeviation="9.91939"/>
<feColorMatrix type="matrix" values="0 0 0 0 0.935 0 0 0 0 0.947 0 0 0 0 0.965 0 0 0 1 0"/>
<feBlend mode="normal" in2="effect1_dropShadow_16357_127349" result="effect2_dropShadow_16357_127349"/>
<feColorMatrix in="SourceAlpha" type="matrix" values="0 0 0 0 0 0 0 0 0 0 0 0 0 0 0 0 0 0 127 0" result="hardAlpha"/>
<feOffset dy="6.66139"/>
<feGaussianBlur stdDeviation="44.4093"/>
<feColorMatrix type="matrix" values="0 0 0 0 0.8512 0 0 0 0 0.874667 0 0 0 0 0.9088 0 0 0 1 0"/>
<feBlend mode="normal" in2="effect2_dropShadow_16357_127349" result="effect3_dropShadow_16357_127349"/>
<feBlend mode="normal" in="SourceGraphic" in2="effect3_dropShadow_16357_127349" result="shape"/>
</filter>
<linearGradient id="paint0_linear_16357_127349" x1="255.693" y1="102.157" x2="255.693" y2="224.684" gradientUnits="userSpaceOnUse">
<stop stop-color="#BA8C00"/>
<stop offset="1" stop-color="#1F80BC"/>
</linearGradient>
<linearGradient id="paint1_linear_16357_127349" x1="255.693" y1="102.157" x2="255.693" y2="224.684" gradientUnits="userSpaceOnUse">
<stop stop-color="#BA8C00"/>
<stop offset="1" stop-color="#1F80BC"/>
</linearGradient>
<linearGradient id="paint2_linear_16357_127349" x1="255.693" y1="102.157" x2="255.693" y2="224.684" gradientUnits="userSpaceOnUse">
<stop stop-color="#BA8C00"/>
<stop offset="1" stop-color="#1F80BC"/>
</linearGradient>
<linearGradient id="paint3_linear_16357_127349" x1="255.693" y1="102.157" x2="255.693" y2="224.684" gradientUnits="userSpaceOnUse">
<stop stop-color="#BA8C00"/>
<stop offset="1" stop-color="#1F80BC"/>
</linearGradient>
<linearGradient id="paint4_linear_16357_127349" x1="255.693" y1="102.157" x2="255.693" y2="224.684" gradientUnits="userSpaceOnUse">
<stop stop-color="#BA8C00"/>
<stop offset="1" stop-color="#1F80BC"/>
</linearGradient>
<linearGradient id="paint5_linear_16357_127349" x1="255.693" y1="102.157" x2="255.693" y2="224.684" gradientUnits="userSpaceOnUse">
<stop stop-color="#BA8C00"/>
<stop offset="1" stop-color="#1F80BC"/>
</linearGradient>
<linearGradient id="paint6_linear_16357_127349" x1="255.693" y1="102.157" x2="255.693" y2="224.684" gradientUnits="userSpaceOnUse">
<stop stop-color="#BA8C00"/>
<stop offset="1" stop-color="#1F80BC"/>
</linearGradient>
<clipPath id="clip0_16357_127349">
<rect width="168.3" height="161.568" rx="34.6964" transform="matrix(-1 0 0 1 257.118 149.049)" fill="white"/>
</clipPath>
</defs>
</svg>
