<svg width="101" height="32" viewBox="0 0 101 32" fill="none" xmlns="http://www.w3.org/2000/svg">
<path d="M23.7888 30.975H17.5949V28.3977C16.9575 29.3122 16.1261 30.0327 15.1007 30.5593C14.1031 31.0858 12.8283 31.3491 11.2763 31.3491C9.7244 31.3491 8.29717 31.072 6.99466 30.5177C5.71986 29.9357 4.62519 29.1459 3.71066 28.1482C2.79612 27.1229 2.07558 25.9173 1.54903 24.5317C1.0502 23.146 0.800781 21.6495 0.800781 20.0422C0.800781 18.3794 1.0502 16.8552 1.54903 15.4695C2.07558 14.0561 2.79612 12.8506 3.71066 11.8529C4.6529 10.8553 5.76143 10.0655 7.03623 9.48348C8.33874 8.9015 9.75211 8.61051 11.2763 8.61051C12.8283 8.61051 14.1031 8.88764 15.1007 9.44191C16.1261 9.96846 16.9575 10.7029 17.5949 11.6451V9.02621H23.7888V30.975ZM17.5949 19.2523C17.5395 18.6149 17.3594 18.0191 17.0545 17.4648C16.7774 16.9106 16.4033 16.4395 15.9321 16.0515C15.4887 15.6358 14.9622 15.3171 14.3525 15.0954C13.7705 14.846 13.1193 14.7212 12.3987 14.7212C11.595 14.7212 10.8745 14.8598 10.2371 15.1369C9.59969 15.4141 9.05928 15.8021 8.61587 16.3009C8.17246 16.7997 7.82605 17.3679 7.57663 18.0053C7.32722 18.6427 7.20251 19.3216 7.20251 20.0422C7.20251 20.735 7.32722 21.4001 7.57663 22.0375C7.82605 22.6749 8.17246 23.2292 8.61587 23.7003C9.05928 24.1714 9.59969 24.5455 10.2371 24.8227C10.9022 25.0998 11.6227 25.2384 12.3987 25.2384C13.1193 25.2384 13.7705 25.1275 14.3525 24.9058C14.9622 24.6564 15.4887 24.3377 15.9321 23.9497C16.4033 23.5617 16.7774 23.0906 17.0545 22.5363C17.3594 21.9821 17.5395 21.4001 17.5949 20.7904V19.2523Z" fill="#2B7194"/>
<path d="M40.8285 0.171875V5.57593H36.6299C35.8263 5.57593 35.2166 5.82535 34.8009 6.32418C34.4129 6.7953 34.2189 7.51585 34.2189 8.4858V9.02621H40.3296V14.0146H34.2189V30.975H28.025V14.0146H24.6163V9.02621H28.025V8.27796C28.025 5.58979 28.6486 3.56673 29.8957 2.20879C31.1428 0.850846 32.9718 0.171875 35.3829 0.171875H40.8285Z" fill="#2B7194"/>
<path d="M39.2632 20.0793C39.2632 18.4443 39.5404 16.9339 40.0946 15.5483C40.6766 14.1349 41.4803 12.9294 42.5057 11.9317C43.5311 10.9063 44.7366 10.1165 46.1222 9.56222C47.5356 8.98025 49.0737 8.68926 50.7365 8.68926C52.3992 8.68926 53.9373 8.98025 55.3507 9.56222C56.7641 10.1165 57.9834 10.9063 59.0088 11.9317C60.0342 12.9571 60.8379 14.1626 61.4198 15.5483C62.0018 16.9339 62.2928 18.4443 62.2928 20.0793C62.2928 21.7144 62.0018 23.2248 61.4198 24.6104C60.8379 25.9961 60.0342 27.2016 59.0088 28.227C57.9834 29.2247 56.7641 30.0145 55.3507 30.5965C53.9373 31.1507 52.3992 31.4279 50.7365 31.4279C49.0737 31.4279 47.5356 31.1507 46.1222 30.5965C44.7366 30.0145 43.5311 29.2247 42.5057 28.227C41.4803 27.2016 40.6766 25.9961 40.0946 24.6104C39.5404 23.2248 39.2632 21.7144 39.2632 20.0793ZM45.665 20.1209C45.665 20.8137 45.7897 21.4789 46.0391 22.1163C46.2885 22.7537 46.6349 23.3079 47.0783 23.779C47.5494 24.2502 48.1037 24.6243 48.7411 24.9014C49.3785 25.1786 50.0713 25.3171 50.8196 25.3171C51.5678 25.3171 52.2468 25.1786 52.8565 24.9014C53.4939 24.6243 54.0343 24.2502 54.4777 23.779C54.9211 23.3079 55.2537 22.7537 55.4754 22.1163C55.7248 21.4789 55.8495 20.8137 55.8495 20.1209C55.8495 19.4004 55.7248 18.7214 55.4754 18.084C55.2537 17.4466 54.9211 16.8785 54.4777 16.3796C54.0343 15.8808 53.4939 15.4928 52.8565 15.2157C52.2468 14.9386 51.5678 14.8 50.8196 14.8C50.0436 14.8 49.3369 14.9386 48.6995 15.2157C48.0899 15.4928 47.5494 15.8808 47.0783 16.3796C46.6349 16.8785 46.2885 17.4466 46.0391 18.084C45.7897 18.7214 45.665 19.4004 45.665 20.1209Z" fill="#2B7194"/>
<path d="M64.0631 9.02621H70.2569V12.9753C71.1715 11.5065 72.3216 10.4119 73.7072 9.69132C75.1206 8.97078 76.6309 8.61051 78.2383 8.61051V15.1369C77.2406 15.1092 76.2845 15.2201 75.37 15.4695C74.4555 15.7189 73.6241 16.1069 72.8758 16.6335C72.1553 17.1323 71.5594 17.7697 71.0883 18.5457C70.6172 19.3216 70.3401 20.2223 70.2569 21.2477V30.975H64.0631V9.02621Z" fill="#2B7194"/>
<path d="M77.9152 20.0006C77.9152 18.3655 78.1923 16.8552 78.7466 15.4695C79.3286 14.0561 80.1323 12.8506 81.1576 11.8529C82.183 10.8276 83.3885 10.0377 84.7742 9.48348C86.1876 8.9015 87.7256 8.61051 89.3884 8.61051C91.0512 8.61051 92.5893 8.9015 94.0027 9.48348C95.416 10.0377 96.6354 10.8276 97.6608 11.8529C98.6862 12.8783 99.4898 14.0838 100.072 15.4695C100.654 16.8552 100.945 18.3655 100.945 20.0006C100.945 21.6357 100.654 23.146 100.072 24.5317C99.4898 25.9173 98.6862 27.1229 97.6608 28.1482C96.6354 29.1459 95.416 29.9357 94.0027 30.5177C92.5893 31.072 91.0512 31.3491 89.3884 31.3491C87.7256 31.3491 86.1876 31.072 84.7742 30.5177C83.3885 29.9357 82.183 29.1459 81.1576 28.1482C80.1323 27.1229 79.3286 25.9173 78.7466 24.5317C78.1923 23.146 77.9152 21.6357 77.9152 20.0006ZM84.3169 20.0422C84.3169 20.735 84.4416 21.4001 84.6911 22.0375C84.9405 22.6749 85.2869 23.2292 85.7303 23.7003C86.2014 24.1714 86.7557 24.5455 87.3931 24.8227C88.0305 25.0998 88.7233 25.2384 89.4716 25.2384C90.2198 25.2384 90.8988 25.0998 91.5085 24.8227C92.1459 24.5455 92.6863 24.1714 93.1297 23.7003C93.5731 23.2292 93.9057 22.6749 94.1274 22.0375C94.3768 21.4001 94.5015 20.735 94.5015 20.0422C94.5015 19.3216 94.3768 18.6427 94.1274 18.0053C93.9057 17.3679 93.5731 16.7997 93.1297 16.3009C92.6863 15.8021 92.1459 15.4141 91.5085 15.1369C90.8988 14.8598 90.2198 14.7212 89.4716 14.7212C88.6956 14.7212 87.9889 14.8598 87.3515 15.1369C86.7418 15.4141 86.2014 15.8021 85.7303 16.3009C85.2869 16.7997 84.9405 17.3679 84.6911 18.0053C84.4416 18.6427 84.3169 19.3216 84.3169 20.0422Z" fill="#2B7194"/>
</svg>
