<svg width="107" height="25" viewBox="0 0 107 25" fill="none" xmlns="http://www.w3.org/2000/svg">
<path d="M6.22931 24.505C2.66434 24.505 -0.000724103 22.4976 -0.000724103 19.1403C-0.000724103 15.1946 3.77191 13.6717 9.34432 13.464L11.6287 13.3948V12.841C11.6287 11.3181 10.5211 10.3144 8.68671 10.3144C6.8177 10.3144 5.84858 11.2835 5.53708 12.668H0.449223C0.864558 8.99916 3.91035 6.16103 8.68671 6.16103C13.1516 6.16103 16.4396 8.34154 16.4396 12.8064V20.94C16.4396 22.013 16.5089 23.5013 16.6127 23.9166V23.9858H11.6979C11.6633 23.5705 11.6633 22.9821 11.6633 22.2553C10.5211 23.5359 8.68671 24.505 6.22931 24.505ZM7.61376 20.6632C9.96732 20.6632 11.6287 18.9672 11.6287 16.9944V16.2675L10.2096 16.3367C6.95614 16.5444 5.26019 17.2713 5.26019 18.7941C5.26019 19.9363 6.26392 20.6632 7.61376 20.6632ZM24.8625 23.9858H19.7054V10.6951H16.5558V6.6802H19.7746V3.80746C19.7746 1.17701 20.9514 0.000223176 23.5819 0.000223176H28.6697V4.15358H25.8662C24.9663 4.15358 24.6894 4.43047 24.6894 5.26114V6.6802H28.6697V10.6951H24.8625V23.9858ZM36.8611 24.5396C31.6002 24.5396 27.516 20.6285 27.516 15.333C27.516 10.0029 31.6002 6.12642 36.8611 6.12642C42.0874 6.12642 46.2061 10.0029 46.2061 15.333C46.2061 20.6285 42.0874 24.5396 36.8611 24.5396ZM36.8611 19.7633C39.2147 19.7633 40.8414 17.825 40.8414 15.333C40.8414 12.7718 39.2147 10.9028 36.8611 10.9028C34.4729 10.9028 32.8462 12.7718 32.8462 15.333C32.8462 17.825 34.4729 19.7633 36.8611 19.7633ZM58.2258 6.3687H58.4681V12.0449C58.0182 11.9757 57.6721 11.9411 57.2221 11.9411C54.7301 11.9411 52.2381 13.0833 52.2381 16.579V23.9858H46.9772V6.6802H52.0996V9.62216C53.3803 7.58009 55.7338 6.3687 58.2258 6.3687ZM66.6763 24.5396C61.4153 24.5396 57.3312 20.6285 57.3312 15.333C57.3312 10.0029 61.4153 6.12642 66.6763 6.12642C71.9026 6.12642 76.0213 10.0029 76.0213 15.333C76.0213 20.6285 71.9026 24.5396 66.6763 24.5396ZM66.6763 19.7633C69.0298 19.7633 70.6566 17.825 70.6566 15.333C70.6566 12.7718 69.0298 10.9028 66.6763 10.9028C64.2881 10.9028 62.6613 12.7718 62.6613 15.333C62.6613 17.825 64.2881 19.7633 66.6763 19.7633ZM82.8493 23.9858H76.5154V17.9981H82.8493V23.9858ZM89.5908 24.505C86.0258 24.505 83.3608 22.4976 83.3608 19.1403C83.3608 15.1946 87.1334 13.6717 92.7058 13.464L94.9902 13.3948V12.841C94.9902 11.3181 93.8826 10.3144 92.0482 10.3144C90.1792 10.3144 89.2101 11.2835 88.8986 12.668H83.8107C84.2261 8.99916 87.2718 6.16103 92.0482 6.16103C96.5131 6.16103 99.8011 8.34154 99.8011 12.8064V20.94C99.8011 22.013 99.8704 23.5013 99.9742 23.9166V23.9858H95.0594C95.0248 23.5705 95.0248 22.9821 95.0248 22.2553C93.8826 23.5359 92.0482 24.505 89.5908 24.505ZM90.9753 20.6632C93.3288 20.6632 94.9902 18.9672 94.9902 16.9944V16.2675L93.5711 16.3367C90.3176 16.5444 88.6217 17.2713 88.6217 18.7941C88.6217 19.9363 89.6254 20.6632 90.9753 20.6632ZM106.731 4.74197H101.47V0.104056H106.731V4.74197ZM106.731 23.9858H101.47V6.6802H106.731V23.9858Z" fill="url(#paint0_linear_12085_24903)"/>
<defs>
<linearGradient id="paint0_linear_12085_24903" x1="103.728" y1="23.9858" x2="78.612" y2="57.9728" gradientUnits="userSpaceOnUse">
<stop stop-color="#0262A1"/>
<stop offset="1" stop-color="#00365A"/>
</linearGradient>
</defs>
</svg>
