<svg width="70" height="23" viewBox="0 0 70 23" fill="none" xmlns="http://www.w3.org/2000/svg">
<path d="M7.77807 22.1985C5.58631 22.1985 3.81059 21.4578 2.45089 19.9763C1.11148 18.4948 0.441777 16.5567 0.441777 14.162C0.441777 11.8079 1.11148 9.89016 2.45089 8.40869C3.79029 6.92723 5.56602 6.1865 7.77807 6.1865C9.05659 6.1865 10.1525 6.41988 11.0657 6.88664C11.9789 7.3534 12.6689 7.90134 13.1357 8.53046V6.58223H16.6973V21.7419H13.1357V19.6414C12.9125 19.9661 12.6182 20.301 12.2529 20.646C11.8876 20.9707 11.2889 21.3157 10.4569 21.681C9.62482 22.026 8.73189 22.1985 7.77807 22.1985ZM5.37323 10.4482C4.56146 11.3615 4.15558 12.5994 4.15558 14.162C4.15558 15.7247 4.56146 16.9728 5.37323 17.9063C6.20528 18.8398 7.3113 19.3066 8.6913 19.3066C10.051 19.3066 11.1469 18.8398 11.9789 17.9063C12.8313 16.9728 13.2575 15.7247 13.2575 14.162C13.2575 12.6197 12.8313 11.3818 11.9789 10.4482C11.1469 9.51472 10.051 9.04795 8.6913 9.04795C7.3113 9.04795 6.20528 9.51472 5.37323 10.4482ZM20.3043 21.7419V9.2306H17.4124V6.58223H20.3043V5.54724C20.3246 3.9643 20.7914 2.69593 21.7046 1.74211C22.6381 0.767992 24.008 0.280935 25.8141 0.280935H27.6102V3.05107H26.423C25.53 3.05107 24.8806 3.24386 24.4747 3.62945C24.0891 3.99474 23.8964 4.58327 23.8964 5.39503V6.58223H27.6102V9.2306H23.9268V21.7419H20.3043ZM35.2016 22.1985C32.7866 22.1985 30.7978 21.4578 29.2352 19.9763C27.6725 18.4745 26.8912 16.5263 26.8912 14.1316C26.8912 11.7775 27.6725 9.85972 29.2352 8.37825C30.7978 6.87649 32.7866 6.12562 35.2016 6.12562C37.6369 6.12562 39.6257 6.86635 41.1681 8.34781C42.7307 9.82927 43.512 11.7572 43.512 14.1316C43.512 16.5263 42.7307 18.4745 41.1681 19.9763C39.6257 21.4578 37.6369 22.1985 35.2016 22.1985ZM31.8836 10.4178C31.0515 11.3513 30.6355 12.5893 30.6355 14.1316C30.6355 15.674 31.0515 16.922 31.8836 17.8759C32.7156 18.8297 33.8216 19.3066 35.2016 19.3066C36.5816 19.3066 37.6877 18.8297 38.5197 17.8759C39.3518 16.9017 39.7678 15.6537 39.7678 14.1316C39.7678 12.6096 39.3518 11.3818 38.5197 10.4482C37.7079 9.49442 36.6121 9.01751 35.2321 9.01751C33.8318 9.01751 32.7156 9.48428 31.8836 10.4178ZM44.8517 21.7419V6.58223H48.4133V9.50457C49.428 7.43458 51.1428 6.39958 53.5578 6.39958H53.9231V9.96119H52.9794C51.3965 9.96119 50.26 10.3671 49.57 11.1788C48.88 11.9906 48.535 13.1676 48.535 14.71V21.7419H44.8517ZM61.5329 22.1985C59.1179 22.1985 57.1291 21.4578 55.5664 19.9763C54.0038 18.4745 53.2225 16.5263 53.2225 14.1316C53.2225 11.7775 54.0038 9.85972 55.5664 8.37825C57.1291 6.87649 59.1179 6.12562 61.5329 6.12562C63.9682 6.12562 65.957 6.86635 67.4993 8.34781C69.062 9.82927 69.8433 11.7572 69.8433 14.1316C69.8433 16.5263 69.062 18.4745 67.4993 19.9763C65.957 21.4578 63.9682 22.1985 61.5329 22.1985ZM58.2148 10.4178C57.3828 11.3513 56.9667 12.5893 56.9667 14.1316C56.9667 15.674 57.3828 16.922 58.2148 17.8759C59.0469 18.8297 60.1529 19.3066 61.5329 19.3066C62.9129 19.3066 64.0189 18.8297 64.851 17.8759C65.683 16.9017 66.099 15.6537 66.099 14.1316C66.099 12.6096 65.683 11.3818 64.851 10.4482C64.0392 9.49442 62.9433 9.01751 61.5633 9.01751C60.163 9.01751 59.0469 9.48428 58.2148 10.4178Z" fill="#4F5B61"/>
</svg>
