<svg width="352" height="402" viewBox="0 0 352 402" fill="none" xmlns="http://www.w3.org/2000/svg">
<rect x="0.601562" y="0.288574" width="350.478" height="401.677" rx="175.239" fill="#FCA5A5" fill-opacity="0.2"/>
<path d="M111.783 280.887C106.434 282.105 91.261 286.189 88.9711 286.866C88.5447 271.718 87.999 160.138 87.9452 149.008C87.9342 148.976 87.9127 148.948 87.8838 148.927C87.8549 148.907 87.8202 148.895 87.7849 148.894C87.7495 148.893 87.7154 148.903 87.6877 148.922C87.6599 148.941 87.6399 148.968 87.6307 148.999C87.198 158.865 88.1077 280.461 88.3472 287.027C86.1927 287.657 76.423 290.526 73.6719 291.317C73.5078 291.313 73.5845 291.608 73.6787 291.56C78.466 290.301 88.1835 287.521 88.2922 287.498C88.4173 291.943 88.5972 296.393 88.832 300.849C88.8335 300.903 88.858 300.956 88.9002 300.996C88.9423 301.035 88.9985 301.058 89.0565 301.06C89.1145 301.061 89.1696 301.041 89.2095 301.004C89.2495 300.967 89.2711 300.916 89.2695 300.861L88.888 287.31C93.3742 286.031 108.702 282.116 111.879 281.413C111.933 281.388 111.977 281.346 112.003 281.295C112.03 281.245 112.038 281.186 112.028 281.129C112.017 281.071 111.988 281.017 111.944 280.974C111.9 280.931 111.844 280.9 111.783 280.887ZM217.987 258.383C217.987 258.383 215.102 271.422 206.507 266.998C197.912 262.574 203.157 254.258 203.06 245.985C202.964 237.713 195.832 231.875 195.832 231.875C195.832 231.875 198.364 247.565 188.265 249.404C178.166 251.243 169.576 242.148 172.149 229.687C174.721 217.226 176.494 210.294 176.288 205.911C176.083 201.528 174.305 200.024 174.305 200.024C174.305 200.024 176.087 209.938 164.578 215.069C153.365 220.067 138.142 228.681 138.373 246.095C138.613 263.84 142.989 269.309 138.921 269.924C132.799 270.852 136.343 261.825 134.35 255.567C133.698 253.686 132.662 251.923 131.301 250.378C129.94 248.834 128.281 247.539 126.418 246.567C126.418 246.567 132.519 255.555 126.521 264.271C120.522 272.987 107.02 283.499 125.541 298.867C125.541 298.867 123.827 293.294 127.118 289.863C130.41 286.432 131.881 285.796 133.434 282.253C134.078 281.025 134.431 279.669 134.47 278.274C134.47 278.274 143.375 289.343 150.092 283.327C156.808 277.311 152.722 268.558 156.156 264.352C159.59 260.146 161.03 260.352 161.03 260.352C161.03 260.352 156.218 266.536 162.11 275.429C168.003 284.321 176.443 275.941 178.078 269.49C179.714 263.039 185.952 264.808 185.952 264.808C185.952 264.808 178.902 266.233 180.582 272.52C182.262 278.807 183.811 278.991 183.811 278.991C183.811 278.991 185.024 273.562 191.901 275.208C198.779 276.853 202.297 282.91 206.241 282.292C210.186 281.674 211.341 277.086 211.341 277.086C211.341 277.086 216.633 284.533 216.099 288.398C215.566 292.262 211.892 296.666 211.892 296.666C215.377 296.739 218.722 295.717 221.392 293.764C224.062 291.811 225.902 289.04 226.617 285.894C229.763 274.381 217.987 258.383 217.987 258.383Z" fill="#001520"/>
<path d="M207.27 255.16C207.933 254.906 208.527 254.527 209.014 254.045C209.501 253.564 209.871 252.99 210.103 252.359C210.334 251.728 210.422 251.053 210.361 250.375C210.3 249.697 210.09 249.03 209.746 248.415C208.872 247.169 208.311 245.769 208.106 244.323C206.668 245.928 205.836 247.94 205.729 250.072C205.426 253.84 207.27 255.16 207.27 255.16ZM180.86 208.323C180.243 205.245 184.655 204.714 183.935 200.426C183.214 196.139 179.601 195.679 179.601 195.679L180.557 197.339C181.5 199.012 181.43 201.566 180.15 204.412C178.869 207.259 180.86 208.323 180.86 208.323Z" fill="#001520"/>
<path d="M236.765 246.88C234.542 247.256 232.36 247.784 230.237 248.459L230.065 242.341L230.271 242.347C231.647 242.385 230.749 231.008 229.758 227.051C229.148 193.646 228.275 133.266 228.257 132.623C228.256 132.583 228.237 132.543 228.205 132.513C228.174 132.483 228.131 132.466 228.087 132.465C228.044 132.463 228.002 132.479 227.972 132.507C227.942 132.535 227.925 132.573 227.927 132.614C227.514 166.826 228.368 203.037 229.033 225.696C228.314 225.586 226.735 226.647 224.974 228.075L199.389 175.922C199.372 160.152 199.218 142.953 198.782 127.454C198.777 127.274 198.474 127.266 198.465 127.445C198.414 129.036 198.464 151.844 198.533 175.295L168.593 168.751C168.677 153.652 168.76 139.002 168.721 136.651C168.718 136.548 168.553 136.543 168.542 136.646C168.446 142.024 168.054 152.53 167.919 168.733L140.607 172.522C140.223 155.933 139.772 142.835 139.76 142.411C139.752 142.391 139.737 142.373 139.719 142.361C139.7 142.348 139.678 142.341 139.655 142.341C139.633 142.34 139.611 142.346 139.593 142.358C139.575 142.369 139.561 142.386 139.554 142.405C139.494 143.688 139.668 156.739 139.898 172.246L113.016 157.568C112.926 151.928 112.87 148.472 112.864 148.266C112.864 148.241 112.858 148.216 112.847 148.192C112.836 148.169 112.82 148.147 112.8 148.129C112.78 148.11 112.757 148.095 112.732 148.085C112.707 148.074 112.68 148.069 112.653 148.068C112.625 148.067 112.599 148.071 112.574 148.08C112.549 148.089 112.527 148.103 112.508 148.12C112.49 148.138 112.475 148.159 112.465 148.182C112.455 148.205 112.451 148.23 112.452 148.255C112.488 149.54 112.579 152.779 112.614 157.467L90.5846 156.42C90.2102 156.4 89.8507 156.519 89.5852 156.751C89.3197 156.983 89.1699 157.31 89.1688 157.659C89.1676 158.008 89.3153 158.351 89.5792 158.612C89.8431 158.874 90.2017 159.032 90.5761 159.053L112.61 160.254C113.072 191.343 113.977 269.446 113.969 270.152C113.976 270.383 114.347 270.393 114.341 270.162C114.464 264.258 113.464 190.096 113.014 160.419L139.943 175.29C140.3 199.25 140.767 227.579 140.767 228.041C140.771 228.208 141.047 228.216 141.056 228.049C141.386 214.369 141.077 193.133 140.669 175.221L167.9 171.493C167.851 180.481 167.874 191.089 168.084 203.448C168.088 203.602 168.35 203.61 168.346 203.455C168.384 199.437 168.488 185.558 168.573 171.448L198.541 178.506C198.608 203.395 198.699 228.117 198.696 228.503C198.697 228.547 198.717 228.59 198.752 228.622C198.786 228.654 198.832 228.673 198.879 228.675C198.927 228.676 198.972 228.66 199.005 228.629C199.037 228.599 199.055 228.557 199.054 228.512C199.086 224.764 199.394 204.444 199.392 179.916L222.8 229.979C220.115 232.28 217.79 234.682 217.79 234.682C217.253 236.131 226.838 241.045 229.565 242.186L229.746 248.612C228.737 248.905 220.122 251.607 216.72 252.361C216.683 252.374 216.654 252.399 216.637 252.432C216.621 252.465 216.617 252.503 216.629 252.539C216.64 252.576 216.664 252.608 216.698 252.63C216.731 252.652 216.771 252.662 216.811 252.659C220.229 251.957 235.21 247.813 236.788 247.215C237.019 247.131 236.93 246.872 236.765 246.88ZM169.049 294.92C168.689 295.259 168.433 295.682 168.304 296.15C168.176 296.618 168.178 297.116 168.313 297.597C168.477 298.021 168.741 298.411 169.084 298.736C169.426 299.061 169.839 299.314 170.291 299.475C172.047 300.009 173.876 300.242 175.686 300.164C175.686 300.164 182.012 305.091 182.182 305.236C180.835 306.265 178.905 305.569 177.347 305.436C177.086 305.429 177.095 305.75 177.358 305.835C178.222 306.193 179.154 306.355 180.074 306.307C180.995 306.259 181.877 306.002 182.644 305.557C182.984 305.83 183.341 306.084 183.711 306.319C183.742 306.333 183.777 306.336 183.81 306.33C183.843 306.323 183.871 306.305 183.891 306.281C183.911 306.256 183.921 306.225 183.92 306.194C183.919 306.162 183.906 306.131 183.884 306.105C183.59 305.816 183.279 305.541 182.953 305.283C183.231 304.97 183.426 304.598 183.525 304.195C183.624 303.792 183.623 303.368 183.523 302.955C183.423 302.542 183.226 302.15 182.947 301.808C182.668 301.466 182.314 301.182 181.911 300.978C180.009 300.046 177.899 299.606 175.811 299.705C173.787 298.134 171.762 296.562 169.711 295.003C169.892 294.869 170.092 294.758 170.307 294.673C170.988 294.479 171.716 294.439 172.435 294.555C173.154 294.671 173.844 294.939 174.451 295.34C174.547 295.342 174.629 295.345 174.557 295.214C173.875 294.555 172.971 294.141 172.017 294.051C171.063 293.961 170.127 294.2 169.387 294.724L167.982 293.671C167.856 293.578 167.695 293.727 167.808 293.82L169.049 294.92ZM183.032 303.218C183.085 303.534 183.065 303.854 182.974 304.155C182.883 304.456 182.723 304.731 182.504 304.963L176.374 300.183C178.907 300.279 182.621 300.805 183.019 303.218L183.032 303.218ZM169.428 295.213C171.3 296.729 173.197 298.207 175.054 299.697C173.755 299.671 172.454 299.54 171.166 299.307C168.368 298.574 168.103 296.487 169.414 295.213L169.428 295.213Z" fill="#001520"/>
<path d="M246.775 330.41C244.713 328.727 215.563 308.34 212.924 306.628L212.864 304.5C212.864 304.475 186.069 285.497 185.906 285.531C182.364 286.291 137.963 295.726 135.105 296.453C135.079 296.457 135.055 296.467 135.035 296.482C135.014 296.497 134.999 296.516 134.988 296.538C134.978 296.561 134.974 296.585 134.977 296.61C134.979 296.635 134.988 296.659 135.002 296.681L135.029 297.629C133.818 297.967 118.41 301.726 118.414 301.893C118.489 304.559 119.052 309.939 119.053 309.965C118.696 309.955 108.982 311.53 108.944 311.618C108.905 311.707 109.024 318.842 109.269 320.27C109.271 320.334 161.753 359.398 161.849 359.388C163.552 359.025 185.739 353.085 187.701 352.678C187.762 352.662 187.814 352.625 187.845 352.574C187.877 352.522 187.886 352.461 187.871 352.401C187.745 351.809 187.674 351.231 187.588 350.639C187.588 350.639 191.416 352.244 191.539 352.209C198.41 350.414 216.023 345.627 217.94 345.066C218.046 345.004 218.122 344.905 218.152 344.79L218.108 343.24C218.108 343.24 220.576 344.256 220.685 344.22C227.477 342.078 244.675 337.126 246.509 336.537C246.563 336.521 246.606 336.485 246.631 336.438C246.655 336.391 246.658 336.336 246.639 336.284C246.753 335.954 246.809 331.602 246.835 330.591C246.847 330.56 246.848 330.526 246.837 330.493C246.826 330.46 246.805 330.431 246.775 330.41ZM246.226 330.395C245.845 330.461 229.7 334.393 228.424 334.806C228.322 334.111 228.243 328.398 228.243 328.398C227.804 327.874 217.681 320.281 216.028 319.019C217.679 318.745 224.583 316.696 226.478 316.313C230.729 319.325 245.069 329.684 246.228 330.446L246.226 330.395ZM210.891 341.016L195.613 344.549C195.833 343.595 195.235 336.497 195.233 336.407L210.894 332.834C210.876 333.166 210.749 340.846 210.824 341.066L210.891 341.016ZM195.083 335.955C194.827 335.628 177.126 323.216 175.113 321.79L185.235 319.612C184.799 319.836 184.461 320.19 184.27 320.621C184.08 321.052 184.047 321.536 184.178 322.003C184.498 323.138 185.856 324.175 188.353 324.257C189.025 324.276 189.723 324.231 190.407 324.186C190.66 324.398 194.332 327.304 196.011 328.516C194.723 328.897 193.321 328.907 191.983 328.545C191.943 328.539 191.903 328.547 191.871 328.567C191.839 328.587 191.816 328.618 191.807 328.654C191.798 328.689 191.804 328.728 191.822 328.761C191.841 328.795 191.871 328.822 191.909 328.837C193.399 329.318 194.993 329.308 196.417 328.809C196.851 329.128 197.285 329.46 197.732 329.767C198.179 330.074 198.274 329.539 197.994 329.339L196.902 328.528C197.294 328.279 197.58 327.911 197.717 327.483C197.853 327.054 197.833 326.587 197.658 326.154C197.007 324.446 194.931 323.735 193.2 323.597C192.332 323.548 191.465 323.576 190.612 323.679C189.869 323.082 186.697 320.434 185.827 319.705C186.327 319.463 190.125 318.544 191.404 318.234C191.404 318.234 209.813 331.933 210.563 332.287C210.645 332.289 210.755 332.292 210.697 332.163C210.27 331.6 193.373 319.031 192.045 318.098C195.532 317.324 208.739 314.246 209.148 314.155C209.148 314.155 226.986 328.043 227.502 328.365C221.992 329.8 199.347 335.023 195.016 336.004L195.083 335.955ZM150.644 327.488C150.15 327.474 145.183 328.245 144.679 328.334C144.721 326.926 144.994 320.058 145.039 319.713C146.693 319.554 153.507 318.668 153.97 318.552L154.587 319.043C153.326 319.027 152.077 319.16 150.87 319.44C150.87 319.44 150.608 327.179 150.577 327.537L150.644 327.488ZM150.651 327.731C150.66 328.039 150.668 328.333 150.567 328.625C150.465 328.917 157.24 333.932 158.095 334.596C157.059 334.798 148.323 337.04 142.787 337.078C142.185 336.639 131.401 328.452 126.651 324.76C128.292 324.627 137.074 323.052 137.074 323.052C137.802 323.584 142.758 327.307 144.456 328.712C146.523 328.536 148.566 328.225 150.57 327.78L150.651 327.731ZM151.153 319.755C151.153 319.755 154.597 319.415 155.105 319.442C155.105 319.442 161.402 324.546 161.457 324.535C165.821 323.747 170.262 322.82 174.595 321.89L194.456 336.079C192.209 336.58 177.34 340.034 177.3 340.072L151.153 319.755ZM179.759 320.331C179.622 320.327 161.531 324.243 161.452 324.369L161.337 315.402C167.355 314.468 173.296 313.25 179.221 311.941C179.036 312.666 179.508 319.709 179.678 320.38L179.759 320.331ZM196.201 316.753C195.193 316.981 184.446 319.36 180.06 320.313C180.041 319.647 179.706 312.621 179.577 311.939C179.577 311.939 191.247 309.253 196.464 308.092C196.433 308.449 195.956 315.364 196.201 316.753ZM185.477 319.939C186.281 320.742 189.23 323.27 189.847 323.773C188.679 323.93 187.473 323.84 186.317 323.509C184.035 322.754 183.98 320.819 185.449 319.938L185.477 319.939ZM191.078 324.179C192.343 324.032 193.643 324.151 194.885 324.528C197.182 325.334 197.816 327.388 196.361 328.295C194.722 327.033 191.19 324.259 191.092 324.179L191.078 324.179ZM213.332 312.836C213.183 311.449 212.925 307.626 212.924 307.101C217.27 310.065 221.655 312.978 225.975 315.991C224.205 316.416 217.392 318.314 215.734 318.819C214.992 318.248 210.131 314.515 209.34 314.173C210.579 313.874 211.818 313.576 213.013 313.186C213.122 313.164 213.363 312.965 213.346 312.837L213.332 312.836ZM212.934 312.825L196.486 316.659C196.447 315.275 196.691 308.367 196.805 308.05C196.915 308.053 208.616 305.497 212.394 304.82C212.347 306.099 212.949 312.851 212.949 312.851L212.934 312.825ZM185.916 285.903C189.225 288.556 210.485 303.231 212.108 304.403C206.981 305.336 201.913 306.412 196.846 307.539C195.265 306.407 172.336 289.368 171.958 289.114C172.682 289.006 182.027 286.973 185.916 285.903ZM171.43 289.342C172.133 289.977 194.545 306.63 196.249 307.766L179.13 311.644C177.562 310.448 155.254 294.553 153.597 293.163C159.592 291.887 165.536 290.613 171.43 289.342ZM152.943 293.299C154.634 294.434 177.829 311.186 178.694 311.735C176.474 312.224 164.728 314.651 161.073 315.267L135.211 296.789C137.776 296.373 152.724 293.292 152.942 293.247L152.943 293.299ZM135.082 298.066C135.221 300.08 135.341 301.914 135.484 304.057L153.442 318.295C153.126 318.286 146.42 319.111 144.688 319.409C144.564 319.406 118.953 302.049 118.953 302.049C121.76 301.461 133.882 298.289 135.081 298.015L135.082 298.066ZM109.716 311.793C109.894 311.798 118.749 310.379 119.187 310.34C119.187 310.34 134.196 321.09 136.868 323.021C135.102 323.1 127.926 324.284 126.052 324.411C124.202 322.964 110.554 312.341 109.716 311.793ZM126.986 333.259C126.967 332.567 126.392 326.264 126.257 324.89C127.294 325.7 138.082 334.015 142.465 337.312C142.465 337.312 143.125 344.719 143.198 345.336C142.541 344.882 131.735 336.9 127 333.26L126.986 333.259ZM143.239 337.552C148.354 336.927 153.416 336.055 158.406 334.938C159.246 335.563 175.025 346.923 176.381 347.831C173.927 348.314 161.874 350.541 161.833 350.539C155.443 346.521 149.301 342.073 143.253 337.552L143.239 337.552ZM161.99 359.033C161.99 359.033 161.871 350.925 161.911 350.862C163.018 350.751 174.005 348.636 176.5 348.18C177.07 348.389 177.616 348.658 178.126 348.981L186.648 346.913C187.082 348.704 186.941 350.532 187.32 352.309C185.744 352.803 163.864 358.432 162.004 359.034L161.99 359.033ZM178.433 348.669C178.433 348.669 177.978 343.24 177.735 340.442C183.399 339.114 189.068 337.803 194.742 336.509L195.395 344.594L178.433 348.669ZM217.681 344.636C214.252 345.514 193.483 351.161 191.633 351.673C191.47 349.774 191.018 345.868 190.989 345.842C190.961 345.816 209.569 341.748 217.661 339.539C217.563 339.946 217.686 343.83 217.696 344.675L217.681 344.636ZM211.15 340.959C211.144 340.767 211.119 333.058 211.178 332.714C213.139 332.269 224.236 329.67 227.801 328.77C227.724 331.405 227.904 334.054 228.34 336.686L211.15 340.959ZM228.706 337.029C228.657 336.376 228.57 335.723 228.445 335.075C229.622 335.031 245.863 331.115 246.297 330.961C246.323 331.87 246.163 335.912 246.227 336.273C239.572 338.419 222.576 343.223 220.864 343.764C220.821 342.239 220.822 338.884 220.822 338.884C220.822 338.884 228.694 337.092 228.706 337.029ZM272.256 149.455L272.251 149.276C272.08 149.091 271.856 148.956 271.608 148.89C271.36 148.823 271.1 148.828 270.864 148.904C270.627 148.98 270.425 149.122 270.285 149.313C270.144 149.504 270.072 149.733 270.078 149.971C270.142 149.773 270.259 149.595 270.417 149.454C270.576 149.313 270.772 149.212 270.987 149.161C271.202 149.11 271.431 149.11 271.652 149.162C271.874 149.213 272.081 149.314 272.256 149.455ZM276.678 152.203C276.653 152.175 276.622 152.153 276.587 152.137C276.553 152.121 276.515 152.112 276.477 152.111C276.439 152.11 276.402 152.117 276.368 152.131C276.334 152.145 276.304 152.166 276.281 152.192C276.29 152.689 276.369 153.186 276.514 153.671C276.519 153.85 276.875 153.822 276.857 153.681C276.864 153.187 276.804 152.69 276.678 152.203ZM271.334 151.261C271.316 151.241 271.293 151.225 271.268 151.214C271.243 151.203 271.216 151.197 271.188 151.196C271.161 151.195 271.134 151.2 271.11 151.21C271.085 151.22 271.063 151.234 271.046 151.253C270.936 151.88 270.954 152.528 271.1 153.162C271.104 153.316 271.419 153.299 271.402 153.171C271.44 152.537 271.417 151.898 271.334 151.261ZM274.39 157.082L274.387 156.98C272.755 156.934 272.717 156.575 272.689 156.548C272.661 156.522 273.571 154.281 273.735 153.799C273.734 153.735 273.636 153.681 273.612 153.795C273.378 154.25 272.132 156.738 272.177 156.854C272.309 157.178 273.941 157.198 274.39 157.082ZM277.789 159.033C277.957 159.234 278.105 159.448 278.232 159.673C277.62 159.861 277.722 161.528 278.666 161.465C278.789 161.466 278.906 161.425 278.995 161.35C279.083 161.274 279.138 161.17 279.148 161.056C279.158 160.441 278.015 159.257 277.789 159.033ZM297.593 184.309C294.148 184.816 290.607 184.796 287.106 184.248L287.109 184.351C288.889 184.772 294.439 185.732 297.698 184.645C297.818 184.533 297.729 184.287 297.593 184.309ZM272.254 182.966C269.261 183.543 266.11 183.34 263.137 182.38C263.041 182.377 263.017 182.479 263.141 182.521C266.116 183.683 269.361 183.926 272.385 183.212C272.466 183.176 272.39 182.931 272.254 182.966ZM278.054 176.724C277.097 177.287 271.394 202.559 271.318 203.248C271.241 203.937 275.875 210.289 276.163 210.297C278.979 208.9 281.681 207.323 284.253 205.579C284.678 205.091 282.008 177.935 281.742 177.249C281.476 176.563 278.054 176.724 278.054 176.724Z" fill="#001520"/>
<path d="M316.642 148.495C310.034 144.152 294.801 135.674 294.63 135.604C294.46 135.535 294.403 135.494 292.677 136.579C291.622 135.204 290.341 133.986 288.884 132.973C288.367 132.675 287.78 132.509 287.185 132.494C286.591 132.478 286.012 132.613 285.511 132.884C284.326 133.426 283.259 134.153 282.353 135.034C280.768 134.9 279.19 135.093 277.734 135.601C277.734 135.601 273.469 127.606 267.28 129.3C261.09 130.994 265.051 138.149 265.051 138.149C264.886 138.319 264.732 138.497 264.588 138.683C264.271 138.34 263.918 138.026 263.537 137.746C262.811 137.389 253.746 139.241 249.297 140.903C243.972 142.963 239.089 145.825 234.838 149.378C231.767 152.635 231.312 154.48 232.403 158.404C235.149 168.384 243.504 178.019 252.65 184.26C252.198 187.754 251.845 191.251 251.717 194.779C251.387 203.237 252.946 207.33 257.546 210.646C248.007 239.236 256.092 315.792 256.092 315.792C256.89 316.49 257.88 316.967 258.938 317.165C259.029 317.895 259.293 319.863 259.329 320.123C258.074 320.983 256.737 321.738 255.331 322.381C254.844 322.52 254.428 322.806 254.149 323.195C253.87 323.585 253.744 324.056 253.789 324.535C253.624 325.674 259.048 325.765 260.562 325.675C262.077 325.585 262.108 324.664 262.414 324.555C262.72 324.446 262.682 325.12 262.65 325.47C262.617 325.82 264.066 325.897 264.952 325.933C265.837 325.969 265.507 318.026 265.549 317.521C266.509 317.421 267.446 317.214 268.342 316.906C277.706 292.221 278.074 276.453 278.074 276.453C273.737 249.951 273.905 232.01 274.978 232.22C276.051 232.43 274.494 239.128 277.248 263.757C280.003 288.385 289.568 319.595 289.568 319.595C290.712 319.815 291.865 319.976 293.022 320.076C293.128 320.858 293.436 322.879 293.471 323.126C292.246 323.949 290.946 324.675 289.584 325.297C289.096 325.433 288.68 325.719 288.403 326.11C288.127 326.5 288.004 326.972 288.056 327.451C287.876 328.589 293.3 328.68 294.829 328.59C296.357 328.501 296.36 327.579 296.666 327.47C296.972 327.361 296.934 328.035 296.902 328.385C296.869 328.735 298.318 328.812 299.204 328.848C300.09 328.885 299.195 324.42 299.953 320.311C300.796 320.293 301.625 320.162 302.414 319.921C302.414 319.921 306.17 310.93 307.459 271.409C308.653 235.081 304.215 216.654 303.493 213.908C304.308 213.501 304.984 212.9 305.456 212.164C305.928 211.428 306.18 210.582 306.187 209.707C306.173 209.187 305.027 188.431 304.856 186.804C311.048 182.663 316.636 177.818 321.497 172.374C323.985 169.777 325.677 166.598 326.412 163.14C327.503 156.326 322.864 152.567 316.642 148.495ZM285.531 133.131C286.12 132.853 286.805 132.777 287.472 132.915C288.138 133.053 288.745 133.398 289.19 133.89C290.219 134.893 291.3 135.849 292.429 136.754C291.02 137.753 290.065 139.2 289.732 140.838C289.697 139.575 289.129 138.349 288.149 137.42C286.601 136.11 284.661 135.28 282.621 135.054C283.504 134.31 284.48 133.665 285.531 133.131ZM286.491 160.426C286.474 160.404 286.451 160.386 286.425 160.374C286.399 160.361 286.37 160.354 286.342 160.353C286.313 160.352 286.285 160.358 286.259 160.369C286.234 160.381 286.212 160.398 286.196 160.419L285.197 161.366C284.922 160.06 284.511 157.349 284.538 157.336C285.23 156.965 289.32 148.879 289.76 142.904C293.131 148.003 297.304 152.633 302.132 156.631C302.822 157.208 306.02 159.616 306.091 159.657C305.827 159.741 289.629 163.691 289.005 163.986C288.17 162.73 287.296 161.603 286.49 160.4L286.491 160.426ZM288.954 164.686C288.059 165.87 284.355 170.096 283.598 171.167C282.32 169.528 281.147 167.823 280.087 166.062C282.259 164.409 284.334 162.653 286.305 160.798C287.182 162.068 288.005 163.401 288.953 164.66L288.954 164.686ZM267.361 140.95C268.605 140.749 268.848 143.95 274.336 144.848C274.108 144.851 273.886 144.901 273.687 144.994C273.488 145.088 273.316 145.223 273.185 145.389C273.185 145.389 275.021 144.723 275.506 146.034C275.508 146.112 275.731 146.04 275.743 145.976C275.757 145.744 275.683 145.511 275.534 145.315C275.385 145.12 275.171 144.974 274.927 144.902C275.747 144.998 276.569 145.046 277.389 145.045C280.732 145.068 279.33 148.719 280.389 148.929C280.897 149.033 280.955 148.567 281.447 148.074C281.939 147.58 282.934 146.996 283.766 147.603C285.959 149.232 283.184 151.989 283.184 151.989C283.401 155.208 284.012 158.413 285.005 161.543C282.388 163.928 279.649 165.96 279.652 166.077C279.202 166.065 277.202 166.376 276.475 166.5C275.634 164.973 274.892 163.405 274.253 161.805C274.339 161.102 274.362 160.39 274.321 159.677C274.269 157.767 272.518 158.435 271.357 158.106C270.641 157.888 269.985 157.514 269.445 157.017C268.319 155.908 267.557 154.532 267.258 153.063C266.847 151.371 266.588 149.657 266.485 147.939C266.344 145.884 265.822 141.195 267.361 140.95ZM270.143 165.047C268.95 164.574 253.66 156.081 252.539 155.156C253.531 154.442 263.208 148.788 266.066 147.513C266.183 151.762 266.893 157.676 271.443 158.679C272.616 158.931 273.434 158.576 273.621 159.217C273.698 159.492 273.751 160.376 273.813 161.092C273.775 161.073 273.734 161.062 273.692 161.061C273.651 161.06 273.61 161.069 273.574 161.086C273.014 161.682 269.629 164.241 269.731 164.361C269.881 164.583 270.019 164.812 270.143 165.047ZM273.667 161.945C273.925 162.641 275.759 165.481 276.217 166.311C276.217 166.311 273.648 169.425 273.246 170.128C272.827 169.195 270.486 164.744 270.281 164.44C271.541 163.785 272.202 162.79 273.669 161.997L273.667 161.945ZM264.97 320.467C263.173 322.017 260.216 320.718 259.741 320.329C259.732 319.978 259.379 317.878 259.262 317.187C261.237 317.434 263.221 317.551 265.199 317.538C265.126 317.965 264.955 319.921 264.97 320.467ZM299.207 323.317C298.445 323.816 297.516 324.065 296.557 324.026C295.599 323.987 294.664 323.661 293.891 323.099C293.883 322.787 293.489 320.725 293.371 320.007C294.285 320.031 298.856 320.269 299.668 320.173C299.589 320.885 299.267 322.942 299.193 323.316L299.207 323.317ZM325.735 164.057C324.773 167.054 323.125 169.794 320.9 172.098C316.087 177.441 310.557 182.188 304.433 186.234C304.171 186.409 305.884 209.919 305.53 210.845C305.035 211.962 304.154 212.882 303.018 213.467C299.104 215.714 276.419 216.662 263.352 212.889C261.099 212.293 259.016 211.188 257.295 209.676C255.574 208.164 254.271 206.295 253.507 204.241C252.534 201.35 252.132 198.347 252.323 195.38C252.44 188.89 253.354 181.746 254.095 175.48C254.095 175.48 253.98 175.386 253.968 175.477C253.499 178.347 253.068 181.063 252.698 183.962C250.746 182.43 248.77 181.067 246.955 179.409C240.922 174.142 236.354 167.614 233.681 160.437C231.814 154.856 232.426 153.587 234.637 150.749C235.189 150.008 235.835 149.332 236.562 148.735C240.094 145.973 244.025 143.667 248.256 141.875C253.128 140.127 258.21 138.86 263.42 138.093C263.744 138.396 264.049 138.716 264.331 139.052C263.546 140.123 262.529 141.979 263.415 143.56C263.958 144.775 264.904 145.816 266.109 146.527L266.127 147.164C263.518 148.329 252.963 154.219 251.889 154.983C251.859 155.009 251.835 155.04 251.82 155.076C251.804 155.111 251.796 155.149 251.797 155.188C251.798 155.227 251.808 155.266 251.826 155.302C251.843 155.338 251.869 155.371 251.9 155.399C256.209 158.888 269.105 165.111 270.563 165.526C270.946 166.146 272.666 169.477 273.159 170.529C273.161 170.633 273.388 170.703 273.454 170.536C273.827 169.764 274.292 169.036 274.841 168.365C274.929 169.004 275.395 171.146 277.108 171.633C278.82 172.119 281.062 169.854 281.239 168.625C281.241 168.729 282.801 170.783 283.43 171.721C283.453 171.759 283.485 171.791 283.523 171.816C283.56 171.841 283.604 171.858 283.649 171.865C283.694 171.873 283.739 171.871 283.782 171.859C283.825 171.847 283.864 171.827 283.896 171.798C284.821 170.693 288.313 165.889 289.392 164.801C289.529 164.675 289.386 164.58 289.15 164.158C289.726 164.174 308.084 159.593 309.47 158.915C309.622 158.841 309.462 158.616 309.336 158.652C308.456 158.845 307.591 159.082 306.743 159.363C301.461 155.224 297.777 153.01 292.726 146.566C290.878 144.206 290.563 143.483 289.803 142.412C289.939 141.052 290.446 139.766 291.278 138.67C292.11 137.575 293.239 136.708 294.561 136.148C295.602 136.734 303.952 141.07 312.551 146.322C316.351 148.643 321.596 151.937 324.027 155.052C325.021 156.374 325.693 157.869 325.994 159.428C326.294 160.986 326.216 162.569 325.763 164.058L325.735 164.057Z" fill="#001520"/>
</svg>
