<svg width="74" height="26" viewBox="0 0 74 26" fill="none" xmlns="http://www.w3.org/2000/svg">
<path d="M6.58886 25.4816C5.55052 25.4816 4.59294 25.2624 3.71612 24.824C2.83931 24.3625 2.13554 23.728 1.60484 22.9204C1.0972 22.0897 0.843388 21.1437 0.843388 20.0823C0.843388 18.7901 1.17796 17.7633 1.84712 17.0019C2.53934 16.2404 3.3354 15.7097 4.23529 15.4097C5.13519 15.0867 6.13891 14.8329 7.24647 14.6483L8.45787 14.4406C9.12702 14.3253 9.65773 14.1984 10.05 14.0599C10.4653 13.8984 10.7768 13.6676 10.9845 13.3677C11.2152 13.0677 11.3306 12.6639 11.3306 12.1563C11.3306 11.4871 11.1345 10.968 10.7422 10.5988C10.35 10.2065 9.7731 10.0104 9.01165 10.0104C8.2502 10.0104 7.6272 10.195 7.14264 10.5642C6.68116 10.9103 6.38119 11.3948 6.24275 12.0178H1.57022C1.77789 10.9103 2.19323 9.96424 2.81623 9.17972C3.46231 8.37212 4.30452 7.76065 5.34285 7.34532C6.40427 6.90691 7.65027 6.6877 9.08087 6.6877C10.5576 6.6877 11.8036 6.91844 12.8189 7.37993C13.8342 7.81834 14.5956 8.46442 15.1032 9.31816C15.6109 10.1488 15.8647 11.141 15.8647 12.2947V20.7053C15.8647 21.3744 15.9108 22.0897 16.0031 22.8512C16.1185 23.6126 16.2569 24.3279 16.4185 24.9971H11.7806C11.7575 24.7433 11.7229 24.501 11.6767 24.2702C11.6306 24.0626 11.596 23.8434 11.5729 23.6126C11.5498 23.3819 11.5267 23.1511 11.5037 22.9204C11.0653 23.6818 10.4307 24.3048 9.60004 24.7894C8.76937 25.2509 7.76564 25.4816 6.58886 25.4816ZM7.9387 21.9167C8.58478 21.9167 9.16163 21.7551 9.66926 21.4321C10.1769 21.086 10.5692 20.6245 10.846 20.0477C11.146 19.4708 11.296 18.8132 11.296 18.0748V16.102C11.0653 16.4019 10.6845 16.6673 10.1538 16.898C9.62312 17.1288 8.97704 17.3134 8.21559 17.4518C7.29262 17.6364 6.61193 17.9133 6.17353 18.2825C5.75819 18.6286 5.55052 19.1362 5.55052 19.8054C5.55052 20.4284 5.76973 20.936 6.20814 21.3283C6.66962 21.7205 7.24647 21.9167 7.9387 21.9167ZM19.9189 10.8411H15.281V7.20687H19.9189V6.13392C19.9189 4.14954 20.565 2.68433 21.8572 1.73829C23.1493 0.769174 24.9491 0.284616 27.2565 0.284616C28.4795 0.284616 29.4716 0.38845 30.2331 0.596117V4.19569C29.3101 4.08032 28.5833 4.02264 28.0526 4.02264C26.945 4.02264 26.1143 4.21877 25.5606 4.61103C25.0299 5.00329 24.7645 5.62629 24.7645 6.48004V7.20687H30.5792V10.8411H24.7645V24.9971H19.9189V10.8411ZM37.2293 25.5162C35.7525 25.5162 34.4142 25.124 33.2144 24.3395C32.0376 23.5319 31.1146 22.4128 30.4455 20.9822C29.7763 19.5516 29.4418 17.9248 29.4418 16.102C29.4418 14.2791 29.7763 12.6524 30.4455 11.2218C31.1146 9.79118 32.0376 8.68362 33.2144 7.8991C34.4142 7.0915 35.7525 6.6877 37.2293 6.6877C38.706 6.6877 40.0328 7.0915 41.2096 7.8991C42.4095 8.68362 43.344 9.79118 44.0131 11.2218C44.6823 12.6524 45.0168 14.2791 45.0168 16.102C45.0168 17.9248 44.6823 19.5516 44.0131 20.9822C43.344 22.4128 42.4095 23.5319 41.2096 24.3395C40.0328 25.124 38.706 25.5162 37.2293 25.5162ZM37.2293 21.709C37.8523 21.709 38.383 21.5013 38.8214 21.086C39.2598 20.6476 39.5829 20.013 39.7905 19.1824C40.0213 18.3286 40.1366 17.3018 40.1366 16.102C40.1366 14.9021 40.0213 13.8868 39.7905 13.0562C39.5829 12.2024 39.2598 11.5679 38.8214 11.1526C38.383 10.7141 37.8523 10.4949 37.2293 10.4949C36.6063 10.4949 36.0756 10.7141 35.6372 11.1526C35.1988 11.5679 34.8642 12.2024 34.6334 13.0562C34.4258 13.8868 34.3219 14.9021 34.3219 16.102C34.3219 17.3018 34.4258 18.3286 34.6334 19.1824C34.8642 20.013 35.1988 20.6476 35.6372 21.086C36.0756 21.5013 36.6063 21.709 37.2293 21.709ZM45.9907 7.20687H50.6632V11.3256C51.1939 9.61813 52.0938 8.38366 53.3629 7.62221C54.655 6.83769 56.3279 6.52618 58.3815 6.6877V11.1526C57.6201 11.0833 56.9394 11.0603 56.3394 11.0833C55.7395 11.0833 55.1973 11.1526 54.7127 11.291C53.3513 11.6602 52.3476 12.4216 51.7015 13.5753C51.0785 14.7291 50.767 16.2173 50.767 18.0402V24.9971H45.9907V7.20687ZM65.8277 25.5162C64.3509 25.5162 63.0126 25.124 61.8128 24.3395C60.636 23.5319 59.713 22.4128 59.0439 20.9822C58.3747 19.5516 58.0401 17.9248 58.0401 16.102C58.0401 14.2791 58.3747 12.6524 59.0439 11.2218C59.713 9.79118 60.636 8.68362 61.8128 7.8991C63.0126 7.0915 64.3509 6.6877 65.8277 6.6877C67.3044 6.6877 68.6312 7.0915 69.808 7.8991C71.0078 8.68362 71.9423 9.79118 72.6115 11.2218C73.2806 12.6524 73.6152 14.2791 73.6152 16.102C73.6152 17.9248 73.2806 19.5516 72.6115 20.9822C71.9423 22.4128 71.0078 23.5319 69.808 24.3395C68.6312 25.124 67.3044 25.5162 65.8277 25.5162ZM65.8277 21.709C66.4507 21.709 66.9814 21.5013 67.4198 21.086C67.8582 20.6476 68.1812 20.013 68.3889 19.1824C68.6196 18.3286 68.735 17.3018 68.735 16.102C68.735 14.9021 68.6196 13.8868 68.3889 13.0562C68.1812 12.2024 67.8582 11.5679 67.4198 11.1526C66.9814 10.7141 66.4507 10.4949 65.8277 10.4949C65.2047 10.4949 64.674 10.7141 64.2355 11.1526C63.7971 11.5679 63.4626 12.2024 63.2318 13.0562C63.0242 13.8868 62.9203 14.9021 62.9203 16.102C62.9203 17.3018 63.0242 18.3286 63.2318 19.1824C63.4626 20.013 63.7971 20.6476 64.2355 21.086C64.674 21.5013 65.2047 21.709 65.8277 21.709Z" fill="url(#paint0_linear_7865_41901)"/>
<defs>
<linearGradient id="paint0_linear_7865_41901" x1="73.9246" y1="28.7002" x2="41.0148" y2="52.3836" gradientUnits="userSpaceOnUse">
<stop stop-color="#025A94"/>
<stop offset="1" stop-color="#00365A"/>
</linearGradient>
</defs>
</svg>
