<svg width="81" height="19" viewBox="0 0 81 19" fill="none" xmlns="http://www.w3.org/2000/svg">
<path d="M4.6719 18.375C1.9987 18.375 0.000282566 16.8697 0.000282566 14.3522C0.000282566 11.3935 2.82921 10.2516 7.00771 10.0959L8.72064 10.044V9.62871C8.72064 8.48676 7.89013 7.73411 6.51459 7.73411C5.11311 7.73411 4.38641 8.46081 4.15283 9.49895H0.337677C0.649118 6.74788 2.93302 4.6197 6.51459 4.6197C9.86259 4.6197 12.3282 6.25477 12.3282 9.60276V15.7018C12.3282 16.5064 12.3801 17.6224 12.4579 17.9338V17.9857H8.77254C8.74659 17.6743 8.74659 17.2331 8.74659 16.688C7.89013 17.6483 6.51459 18.375 4.6719 18.375ZM5.71004 15.4942C7.47487 15.4942 8.72064 14.2225 8.72064 12.7431V12.1981L7.65654 12.25C5.21692 12.4057 3.9452 12.9508 3.9452 14.0927C3.9452 14.9492 4.69785 15.4942 5.71004 15.4942ZM18.6441 17.9857H14.777V8.0196H12.4152V5.009H14.8289V2.85487C14.8289 0.882408 15.7113 -8.49923e-06 17.6838 -8.49923e-06H21.4989V3.1144H19.3967C18.7219 3.1144 18.5143 3.32203 18.5143 3.94491V5.009H21.4989V8.0196H18.6441V17.9857ZM27.6413 18.401C23.6964 18.401 20.6339 15.4682 20.6339 11.4974C20.6339 7.50053 23.6964 4.59375 27.6413 4.59375C31.5603 4.59375 34.6487 7.50053 34.6487 11.4974C34.6487 15.4682 31.5603 18.401 27.6413 18.401ZM27.6413 14.8194C29.4061 14.8194 30.6259 13.366 30.6259 11.4974C30.6259 9.57681 29.4061 8.17532 27.6413 8.17532C25.8505 8.17532 24.6307 9.57681 24.6307 11.4974C24.6307 13.366 25.8505 14.8194 27.6413 14.8194ZM43.6617 4.77542H43.8434V9.03178C43.506 8.97988 43.2465 8.95392 42.9091 8.95392C41.0404 8.95392 39.1718 9.81039 39.1718 12.4317V17.9857H35.2269V5.009H39.068V7.21504C40.0283 5.68379 41.7931 4.77542 43.6617 4.77542ZM49.9983 18.401C46.0534 18.401 42.9909 15.4682 42.9909 11.4974C42.9909 7.50053 46.0534 4.59375 49.9983 4.59375C53.9173 4.59375 57.0058 7.50053 57.0058 11.4974C57.0058 15.4682 53.9173 18.401 49.9983 18.401ZM49.9983 14.8194C51.7632 14.8194 52.983 13.366 52.983 11.4974C52.983 9.57681 51.7632 8.17532 49.9983 8.17532C48.2075 8.17532 46.9877 9.57681 46.9877 11.4974C46.9877 13.366 48.2075 14.8194 49.9983 14.8194ZM62.1258 17.9857H57.3763V13.4958H62.1258V17.9857ZM67.1809 18.375C64.5077 18.375 62.5093 16.8697 62.5093 14.3522C62.5093 11.3935 65.3382 10.2516 69.5167 10.0959L71.2296 10.044V9.62871C71.2296 8.48676 70.3991 7.73411 69.0236 7.73411C67.6221 7.73411 66.8954 8.46081 66.6618 9.49895H62.8467C63.1581 6.74788 65.442 4.6197 69.0236 4.6197C72.3716 4.6197 74.8372 6.25477 74.8372 9.60276V15.7018C74.8372 16.5064 74.8891 17.6224 74.9669 17.9338V17.9857H71.2815C71.2556 17.6743 71.2556 17.2331 71.2556 16.688C70.3991 17.6483 69.0236 18.375 67.1809 18.375ZM68.219 15.4942C69.9839 15.4942 71.2296 14.2225 71.2296 12.7431V12.1981L70.1656 12.25C67.7259 12.4057 66.4542 12.9508 66.4542 14.0927C66.4542 14.9492 67.2069 15.4942 68.219 15.4942ZM80.0334 3.55561H76.0885V0.0778508H80.0334V3.55561ZM80.0334 17.9857H76.0885V5.009H80.0334V17.9857Z" fill="url(#paint0_linear_10242_10566)"/>
<defs>
<linearGradient id="paint0_linear_10242_10566" x1="-0.77832" y1="17.9855" x2="82.6805" y2="18.0131" gradientUnits="userSpaceOnUse">
<stop stop-color="#F9FBFD"/>
<stop offset="1" stop-color="white"/>
</linearGradient>
</defs>
</svg>
