<svg width="512" height="512" viewBox="0 0 512 512" fill="none" xmlns="http://www.w3.org/2000/svg">
<path d="M364.71 38.3096C388.736 57.1951 403.559 82.7497 408 113C408.242 117.809 408.243 122.623 408.25 127.437C408.253 128.445 408.253 128.445 408.256 129.473C408.272 151.456 408.272 151.456 404 160C404.993 159.991 405.987 159.982 407.01 159.973C416.368 159.892 425.726 159.832 435.085 159.793C439.896 159.772 444.707 159.744 449.519 159.698C454.161 159.655 458.803 159.631 463.446 159.62C465.218 159.613 466.99 159.599 468.761 159.577C471.242 159.548 473.721 159.544 476.202 159.546C476.936 159.532 477.67 159.517 478.425 159.502C481.863 159.53 483.682 159.759 486.455 161.866C488.412 164.57 488.516 166.181 488.531 169.5C488.536 170.552 488.542 171.604 488.547 172.687C488.531 173.781 488.516 174.874 488.5 176C488.515 177.093 488.531 178.186 488.547 179.312C488.542 180.364 488.537 181.416 488.531 182.5C488.527 183.459 488.522 184.418 488.518 185.406C487.853 188.735 486.647 189.936 484 192C480.984 192.391 480.984 192.391 477.75 192.25C476.672 192.214 475.595 192.178 474.484 192.141C473.665 192.094 472.845 192.048 472 192C471.85 193.608 471.85 193.608 471.697 195.249C470.974 200.984 469.39 206.462 467.848 212.023C467.524 213.209 467.2 214.394 466.867 215.615C465.98 218.858 465.088 222.1 464.193 225.341C463.246 228.78 462.304 232.222 461.362 235.663C459.566 242.217 457.765 248.771 455.962 255.323C453.953 262.622 451.951 269.922 449.949 277.223C445.639 292.943 441.319 308.661 436.996 324.377C435.468 329.934 433.941 335.49 432.413 341.047C429.943 350.032 427.472 359.016 425 368C425.748 367.954 426.495 367.907 427.266 367.859C435.303 367.565 435.303 367.565 438.654 369.656C440.275 372.479 440.516 374.251 440.531 377.5C440.536 378.552 440.542 379.604 440.547 380.688C440.531 381.781 440.516 382.874 440.5 384C440.515 385.093 440.531 386.186 440.547 387.312C440.542 388.364 440.537 389.416 440.531 390.5C440.527 391.459 440.522 392.418 440.518 393.406C439.837 396.815 438.704 397.848 436 400C433.165 400.519 433.165 400.519 429.854 400.546C428.614 400.566 427.373 400.585 426.094 400.606C424.745 400.607 423.396 400.609 422.047 400.609C420.663 400.624 419.278 400.641 417.894 400.659C414.257 400.703 410.621 400.723 406.984 400.738C403.271 400.758 399.557 400.8 395.844 400.84C388.563 400.915 381.281 400.965 374 401C374.691 401.27 375.382 401.54 376.094 401.819C376.998 402.175 377.902 402.532 378.833 402.9C379.731 403.252 380.628 403.605 381.552 403.968C392.054 408.395 400.164 418.418 404.992 428.445C409.682 440.334 410.12 455.432 405.328 467.395C398.837 480.129 389.1 489.789 375.625 494.875C363.808 497.997 348.926 497.569 338 492C326.048 485.012 316.094 474.863 312.473 461.156C310.321 446.787 311.126 433.023 319.312 420.688C326.598 411.041 334.423 404.859 346 401C291.88 401 237.76 401 182 401C185.3 402.32 188.6 403.64 192 405C203.182 411.739 210.876 421.992 215.109 434.199C218.104 446.979 217.077 461.316 210.422 472.699C203.321 483.399 193.857 492.171 181.156 495.527C166.787 497.679 153.023 496.874 140.688 488.688C130.448 480.955 121.96 471.091 120 458C118.571 440.554 121.182 427.647 132.656 414.035C138.599 407.63 145.754 403.673 154 401C152.78 400.991 151.56 400.981 150.303 400.972C145.737 400.932 141.171 400.866 136.605 400.792C134.636 400.764 132.668 400.743 130.699 400.729C127.853 400.707 125.009 400.661 122.164 400.609C121.297 400.608 120.43 400.607 119.537 400.606C110.822 400.401 102.969 397.715 96.5312 391.703C89.3497 383.715 87.699 375.732 87.7595 365.256C87.7578 364.173 87.7561 363.09 87.7543 361.974C87.751 358.344 87.762 354.714 87.7729 351.084C87.7735 348.483 87.7732 345.881 87.7721 343.279C87.771 337.677 87.7773 332.076 87.7885 326.474C87.8048 318.375 87.81 310.276 87.8125 302.177C87.8169 289.036 87.8302 275.895 87.8491 262.754C87.8675 249.991 87.8816 237.227 87.8901 224.463C87.8909 223.283 87.8909 223.283 87.8917 222.079C87.8943 218.13 87.8969 214.182 87.8994 210.234C87.9201 177.489 87.9553 144.745 88 112C86.8858 112.013 86.8858 112.013 85.7491 112.027C78.7455 112.107 71.7421 112.168 64.7382 112.207C61.1374 112.228 57.5371 112.256 53.9365 112.302C50.4611 112.345 46.9861 112.369 43.5104 112.38C41.5405 112.39 39.5708 112.422 37.6011 112.453C35.7997 112.454 35.7997 112.454 33.9619 112.454C32.3764 112.467 32.3764 112.467 30.7589 112.481C27.2988 111.878 26.1306 110.739 24 108C23.4824 105.406 23.4824 105.406 23.4688 102.5C23.4636 101.448 23.4584 100.396 23.4531 99.3125C23.4686 98.2194 23.4841 97.1262 23.5 96C23.4845 94.9069 23.4691 93.8137 23.4531 92.6875C23.4609 91.1097 23.4609 91.1097 23.4688 89.5C23.4733 88.5409 23.4778 87.5819 23.4824 86.5937C24.165 83.1729 25.2719 82.1472 28 80C30.9953 79.4921 30.9953 79.4921 34.5376 79.4824C35.1854 79.4754 35.8331 79.4684 36.5005 79.4612C38.6388 79.4436 40.7758 79.4552 42.9141 79.4687C44.409 79.466 45.9039 79.4622 47.3988 79.4571C50.5344 79.4512 53.6696 79.4598 56.8052 79.4785C60.7997 79.5012 64.7931 79.4883 68.7876 79.4642C71.878 79.4497 74.9682 79.4544 78.0586 79.4647C79.5296 79.4674 81.0007 79.4642 82.4716 79.4548C93.5238 79.3998 103.087 80.4688 111.469 88.2969C117.037 94.4905 120.265 101.414 120.227 109.822C120.227 110.958 120.227 112.094 120.226 113.265C120.216 114.443 120.206 115.622 120.195 116.836C120.193 117.931 120.191 119.026 120.189 120.154C120.179 124.227 120.151 128.301 120.125 132.375C120.084 141.491 120.043 150.607 120 160C142.44 160 164.88 160 188 160C187.01 156.37 186.02 152.74 185 149C179.355 121.45 185.345 91.2271 200.312 67.625C217.991 41.0074 243.631 23.3711 274.98 16.918C306.781 11.3456 339.116 18.7138 364.71 38.3096Z" fill="#F1F1F1"/>
<path d="M120 192C147.72 192 175.44 192 204 192C208.29 196.95 212.58 201.9 217 207C239.18 228.899 267.929 239.279 298.792 239.247C307.241 239.153 314.837 238.322 323 236C323.692 235.807 324.384 235.613 325.098 235.414C344.735 229.803 369.718 218.692 380.603 200.29C383.059 196.474 385.413 192.829 389.926 191.383C395.664 190.432 401.465 190.739 407.254 190.926C409.124 190.946 410.995 190.962 412.865 190.973C417.764 191.015 422.66 191.123 427.557 191.245C432.564 191.358 437.572 191.408 442.58 191.463C452.388 191.58 462.194 191.768 472 192C471.355 198.911 469.7 205.345 467.848 212.023C467.524 213.209 467.2 214.394 466.867 215.615C465.98 218.858 465.088 222.1 464.193 225.341C463.246 228.78 462.304 232.222 461.362 235.663C459.566 242.217 457.765 248.771 455.962 255.323C453.954 262.621 451.952 269.919 449.951 277.219C445.309 294.148 440.655 311.074 436 328C432.37 341.2 428.74 354.4 425 368C324.35 368 223.7 368 120 368C120 309.92 120 251.84 120 192Z" fill="#8C8C8C"/>
<path d="M34.5376 79.4824C35.1854 79.4754 35.8331 79.4684 36.5005 79.4612C38.6388 79.4436 40.7758 79.4552 42.9141 79.4687C44.409 79.466 45.9039 79.4622 47.3988 79.4571C50.5344 79.4513 53.6696 79.4598 56.8052 79.4785C60.7997 79.5012 64.7931 79.4883 68.7876 79.4642C71.878 79.4497 74.9682 79.4544 78.0586 79.4647C79.5296 79.4674 81.0007 79.4642 82.4716 79.4548C93.5238 79.3998 103.087 80.4688 111.469 88.2969C118.65 96.2846 120.301 104.268 120.241 114.744C120.242 115.827 120.244 116.91 120.246 118.026C120.249 121.656 120.238 125.286 120.227 128.916C120.226 131.517 120.227 134.119 120.228 136.721C120.229 142.323 120.223 147.924 120.211 153.526C120.195 161.625 120.19 169.724 120.187 177.823C120.183 190.964 120.17 204.105 120.151 217.246C120.133 230.009 120.118 242.773 120.11 255.537C120.109 256.324 120.109 257.111 120.108 257.921C120.106 261.87 120.103 265.818 120.101 269.766C120.08 302.511 120.045 335.255 120 368C120.667 367.998 121.334 367.997 122.022 367.995C161.536 367.906 201.051 367.837 240.565 367.796C245.307 367.791 250.048 367.786 254.79 367.78C256.206 367.779 256.206 367.779 257.651 367.777C272.948 367.76 288.245 367.728 303.542 367.691C319.231 367.654 334.92 367.632 350.609 367.624C360.295 367.618 369.981 367.601 379.667 367.568C386.303 367.547 392.939 367.541 399.576 367.546C403.408 367.549 407.24 367.545 411.073 367.523C415.223 367.5 419.372 367.508 423.522 367.519C425.349 367.502 425.349 367.502 427.213 367.484C428.322 367.492 429.43 367.5 430.573 367.508C431.531 367.506 432.49 367.505 433.477 367.503C436.755 368.149 437.948 369.417 440 372C440.518 374.594 440.518 374.594 440.531 377.5C440.536 378.552 440.542 379.604 440.547 380.688C440.531 381.781 440.516 382.874 440.5 384C440.515 385.093 440.531 386.186 440.547 387.312C440.542 388.364 440.537 389.416 440.531 390.5C440.527 391.459 440.522 392.418 440.518 393.406C439.837 396.815 438.704 397.848 436 400C433.165 400.519 433.165 400.519 429.854 400.546C428.614 400.566 427.373 400.585 426.094 400.606C424.745 400.607 423.396 400.609 422.047 400.609C420.663 400.624 419.278 400.641 417.894 400.659C414.257 400.703 410.621 400.723 406.984 400.738C403.271 400.758 399.557 400.8 395.844 400.84C388.563 400.915 381.281 400.965 374 401C374.691 401.27 375.382 401.54 376.094 401.819C376.998 402.175 377.902 402.532 378.833 402.9C379.731 403.252 380.628 403.605 381.552 403.968C392.054 408.395 400.164 418.418 404.992 428.445C409.682 440.334 410.12 455.432 405.328 467.395C398.837 480.129 389.1 489.789 375.625 494.875C363.808 497.997 348.926 497.569 338 492C326.048 485.012 316.094 474.863 312.473 461.156C310.321 446.787 311.126 433.023 319.312 420.688C326.598 411.041 334.423 404.859 346 401C291.88 401 237.76 401 182 401C185.3 402.32 188.6 403.64 192 405C203.182 411.739 210.876 421.992 215.109 434.199C218.104 446.979 217.077 461.316 210.422 472.699C203.321 483.399 193.857 492.171 181.156 495.527C166.787 497.679 153.023 496.874 140.688 488.688C130.448 480.955 121.96 471.091 120 458C118.571 440.554 121.182 427.647 132.656 414.035C138.599 407.63 145.754 403.673 154 401C152.78 400.991 151.56 400.981 150.303 400.972C145.737 400.932 141.171 400.866 136.605 400.792C134.636 400.764 132.668 400.743 130.699 400.729C127.853 400.707 125.009 400.661 122.164 400.609C121.297 400.608 120.43 400.607 119.537 400.606C110.822 400.401 102.969 397.715 96.5312 391.703C89.3497 383.715 87.699 375.732 87.7595 365.256C87.7578 364.173 87.7561 363.09 87.7543 361.974C87.751 358.344 87.762 354.714 87.7729 351.084C87.7735 348.483 87.7732 345.881 87.7721 343.279C87.771 337.677 87.7773 332.076 87.7885 326.474C87.8048 318.375 87.81 310.276 87.8125 302.177C87.8169 289.036 87.8302 275.895 87.8491 262.754C87.8675 249.991 87.8816 237.227 87.8901 224.463C87.8909 223.283 87.8909 223.283 87.8917 222.079C87.8943 218.13 87.8969 214.182 87.8994 210.234C87.9201 177.489 87.9553 144.745 88 112C86.8858 112.013 86.8858 112.013 85.7491 112.027C78.7455 112.107 71.7421 112.168 64.7382 112.207C61.1374 112.228 57.5371 112.256 53.9365 112.302C50.4611 112.345 46.9861 112.369 43.5104 112.38C41.5405 112.39 39.5708 112.422 37.6011 112.453C35.7997 112.454 35.7997 112.454 33.9619 112.454C32.3764 112.467 32.3764 112.467 30.7589 112.481C27.2988 111.878 26.1306 110.739 24 108C23.4824 105.406 23.4824 105.406 23.4688 102.5C23.4636 101.448 23.4584 100.396 23.4531 99.3125C23.4686 98.2194 23.4841 97.1262 23.5 96C23.4845 94.9069 23.4691 93.8137 23.4531 92.6875C23.4609 91.1097 23.4609 91.1097 23.4688 89.5C23.4733 88.5409 23.4778 87.5819 23.4824 86.5937C24.7159 80.4123 28.8325 79.4979 34.5376 79.4824Z" fill="#F2F2F2"/>
<path d="M387.313 407.313C397.552 415.045 406.04 424.909 408 438C409.429 455.446 406.818 468.353 395.344 481.965C387.338 490.594 377.052 495.667 365.344 496.316C348.657 496.876 336.67 493.21 324.25 481.688C314.257 471.129 311.486 459.582 311.58 445.47C311.991 431.347 317.837 420.271 328.063 410.594C344.72 396.892 369.262 395.333 387.313 407.313Z" fill="#8B8B8B"/>
<path d="M195.313 407.313C205.552 415.045 214.04 424.909 216 438C217.429 455.446 214.818 468.353 203.344 481.965C195.338 490.594 185.052 495.667 173.344 496.316C156.657 496.876 144.67 493.21 132.25 481.688C122.257 471.129 119.486 459.582 119.58 445.47C119.991 431.347 125.837 420.271 136.063 410.594C152.72 396.892 177.262 395.333 195.313 407.313Z" fill="#8B8B8B"/>
<path d="M255.812 79.25C265.559 81.5433 274.577 94.4682 281.5 101.438C282.812 102.755 284.125 104.072 285.438 105.389C288.628 108.59 291.815 111.794 295 115C297.991 113.658 300.062 112.18 302.36 109.851C302.994 109.214 303.628 108.577 304.281 107.92C304.954 107.234 305.627 106.547 306.32 105.84C307.02 105.135 307.72 104.43 308.441 103.703C310.674 101.453 312.9 99.1956 315.125 96.9375C317.358 94.6767 319.593 92.4174 321.83 90.161C323.222 88.757 324.611 87.3504 325.997 85.9409C326.939 84.9897 326.939 84.9897 327.899 84.0193C328.451 83.4591 329.003 82.8988 329.572 82.3216C331.668 80.3819 332.95 80.0067 335.812 79.625C339 80 339 80 341.875 82.125C344 85 344 85 344.75 87.8125C342.457 97.5589 329.532 106.577 322.562 113.5C321.245 114.812 319.928 116.125 318.611 117.438C315.41 120.628 312.206 123.815 309 127C310.342 129.991 311.82 132.062 314.149 134.36C314.786 134.994 315.423 135.628 316.08 136.281C317.11 137.29 317.11 137.29 318.16 138.32C318.865 139.02 319.57 139.72 320.297 140.441C322.547 142.674 324.804 144.9 327.062 147.125C329.323 149.358 331.583 151.593 333.839 153.83C335.243 155.222 336.65 156.611 338.059 157.997C339.01 158.939 339.01 158.939 339.981 159.899C340.541 160.451 341.101 161.003 341.678 161.572C343.618 163.668 343.993 164.95 344.375 167.812C344 171 344 171 341.875 173.875C338.449 176.407 337.165 176.485 333 176C330.706 174.508 330.706 174.508 328.477 172.348C327.617 171.525 326.758 170.703 325.872 169.856C324.913 168.905 323.956 167.953 323 167C321.921 165.94 320.841 164.88 319.761 163.82C316.275 160.383 312.824 156.912 309.375 153.438C308.168 152.226 306.961 151.014 305.754 149.803C302.833 146.871 299.916 143.936 297 141C294.009 142.342 291.938 143.82 289.64 146.149C289.006 146.786 288.372 147.423 287.719 148.08C286.71 149.11 286.71 149.11 285.68 150.16C284.98 150.865 284.28 151.57 283.559 152.297C281.326 154.547 279.1 156.804 276.875 159.062C274.642 161.323 272.407 163.583 270.17 165.839C268.778 167.243 267.389 168.65 266.003 170.059C265.061 171.01 265.061 171.01 264.101 171.981C263.549 172.541 262.997 173.101 262.428 173.678C260.332 175.618 259.05 175.993 256.188 176.375C253 176 253 176 250.125 173.875C248 171 248 171 247.25 168.188C249.543 158.441 262.468 149.423 269.438 142.5C270.755 141.188 272.072 139.875 273.389 138.562C276.59 135.372 279.794 132.185 283 129C281.658 126.009 280.18 123.938 277.851 121.64C277.214 121.006 276.577 120.372 275.92 119.719C275.234 119.046 274.547 118.373 273.84 117.68C273.135 116.98 272.43 116.28 271.703 115.559C269.453 113.326 267.196 111.1 264.938 108.875C262.677 106.642 260.417 104.407 258.161 102.17C256.757 100.778 255.35 99.389 253.941 98.0029C252.99 97.0615 252.99 97.0615 252.019 96.1011C251.459 95.5491 250.899 94.9971 250.322 94.4284C248.382 92.332 248.007 91.05 247.625 88.1875C248 85 248 85 250.125 82.125C253 80 253 80 255.812 79.25Z" fill="#5C5C5C"/>
<path d="M403 160C413.492 159.907 423.984 159.836 434.476 159.793C439.348 159.772 444.22 159.744 449.091 159.698C453.792 159.655 458.493 159.631 463.194 159.62C464.988 159.613 466.782 159.599 468.576 159.577C471.088 159.548 473.599 159.544 476.11 159.546C477.225 159.524 477.225 159.524 478.362 159.502C481.82 159.53 483.67 159.749 486.461 161.866C488.411 164.57 488.516 166.185 488.531 169.5C488.539 171.078 488.539 171.078 488.547 172.688C488.531 173.781 488.516 174.874 488.5 176C488.523 177.64 488.523 177.64 488.547 179.312C488.542 180.364 488.537 181.416 488.531 182.5C488.527 183.459 488.522 184.418 488.518 185.406C487.816 188.922 486.901 189.875 484 192C480.912 192.583 477.867 192.505 474.733 192.454C473.796 192.455 472.86 192.455 471.894 192.456C468.799 192.453 465.705 192.422 462.609 192.391C460.463 192.383 458.316 192.377 456.169 192.373C450.521 192.358 444.872 192.319 439.223 192.275C433.459 192.234 427.694 192.215 421.93 192.195C410.62 192.152 399.31 192.084 388 192C388.544 190.994 389.088 189.988 389.649 188.952C390.373 187.606 391.097 186.26 391.82 184.914C392.178 184.254 392.535 183.594 392.904 182.914C396.021 177.104 398.606 171.143 401 165C401.666 163.333 402.332 161.666 403 160Z" fill="#BFBFBF"/>
<path d="M120 160C142.77 160 165.54 160 189 160C191.31 165.94 193.62 171.88 196 178C198.64 182.62 201.28 187.24 204 192C176.28 192 148.56 192 120 192C120 181.44 120 170.88 120 160Z" fill="#BFBFBF"/>
<path d="M370.055 425.898C376.546 429.574 381.95 434.683 384 442C385.036 449.287 384.21 455.864 380 462C375.157 467.24 370.454 471.472 363.168 472.336C355.037 472.442 349.81 471.573 343.805 465.941C337.496 459.237 335.463 453.93 335.699 444.738C336.554 436.954 340.968 432.654 346.684 427.664C353.631 422.673 362.3 422.539 370.055 425.898Z" fill="#595959"/>
<path d="M178.055 425.898C184.546 429.574 189.95 434.683 192 442C193.036 449.287 192.21 455.864 188 462C183.157 467.24 178.454 471.472 171.168 472.336C163.037 472.442 157.81 471.573 151.805 465.941C145.496 459.237 143.463 453.93 143.699 444.738C144.554 436.954 148.968 432.654 154.684 427.664C161.631 422.673 170.3 422.539 178.055 425.898Z" fill="#595959"/>
<path d="M183.133 223.59C184.119 223.762 184.119 223.762 185.125 223.938C185.788 224.029 186.45 224.121 187.133 224.215C189.866 225.364 190.551 226.37 192 229C192.454 232.213 192.41 235.406 192.388 238.646C192.393 239.624 192.399 240.602 192.404 241.609C192.417 244.842 192.409 248.075 192.398 251.309C192.4 253.555 192.403 255.802 192.407 258.049C192.412 262.759 192.405 267.469 192.391 272.179C192.374 278.216 192.384 284.253 192.402 290.29C192.413 294.931 192.409 299.571 192.401 304.211C192.399 306.437 192.402 308.663 192.409 310.889C192.417 314.001 192.405 317.112 192.388 320.224C192.397 321.605 192.397 321.605 192.407 323.013C192.359 327.807 192.177 331.135 189 335C186.371 336.123 183.839 336.206 181 336C177.733 334.325 177.172 333.517 176 330C175.902 328.615 175.857 327.227 175.846 325.839C175.838 324.992 175.829 324.145 175.82 323.273C175.816 322.347 175.812 321.421 175.807 320.467C175.799 319.49 175.791 318.512 175.782 317.505C175.758 314.266 175.741 311.028 175.727 307.789C175.721 306.684 175.716 305.578 175.71 304.44C175.684 298.592 175.664 292.744 175.65 286.896C175.633 280.851 175.588 274.807 175.538 268.762C175.504 264.117 175.492 259.473 175.487 254.828C175.48 252.599 175.465 250.37 175.441 248.142C175.409 245.025 175.409 241.909 175.417 238.792C175.4 237.87 175.384 236.948 175.367 235.998C175.411 231.463 175.532 229.601 178.403 225.914C181 224 181 224 183.133 223.59Z" fill="#595959"/>
<path d="M375.133 239.59C376.119 239.762 376.119 239.762 377.125 239.938C377.788 240.029 378.45 240.121 379.133 240.215C381.809 241.34 382.551 242.465 384 245C384.29 247.801 384.41 250.378 384.388 253.177C384.393 253.999 384.399 254.821 384.404 255.667C384.417 258.381 384.409 261.095 384.398 263.809C384.4 265.697 384.403 267.585 384.407 269.473C384.412 273.43 384.405 277.386 384.391 281.343C384.374 286.412 384.384 291.48 384.402 296.549C384.413 300.448 384.409 304.347 384.401 308.246C384.399 310.115 384.402 311.983 384.409 313.852C384.417 316.466 384.405 319.079 384.388 321.693C384.397 322.849 384.397 322.849 384.407 324.028C384.354 328.514 383.795 331.44 381 335C378.371 336.123 375.839 336.206 373 336C369.733 334.325 369.172 333.517 368 330C367.883 327.304 367.822 324.633 367.807 321.936C367.799 321.115 367.791 320.293 367.782 319.447C367.758 316.728 367.741 314.008 367.727 311.289C367.721 310.36 367.716 309.432 367.71 308.475C367.684 303.561 367.664 298.647 367.65 293.732C367.637 289.664 367.609 285.596 367.568 281.528C367.519 276.616 367.494 271.705 367.487 266.793C367.48 264.922 367.465 263.05 367.441 261.179C367.409 258.559 367.409 255.942 367.417 253.323C367.4 252.551 367.384 251.779 367.367 250.983C367.414 246.948 367.844 245.194 370.403 242.005C373 240 373 240 375.133 239.59Z" fill="#595959"/>
<path d="M247.133 255.59C248.119 255.762 248.119 255.762 249.125 255.938C249.788 256.029 250.45 256.121 251.133 256.215C253.757 257.318 254.546 258.552 256 261C256.381 264.067 256.381 264.067 256.388 267.709C256.393 268.374 256.399 269.04 256.404 269.726C256.417 271.92 256.409 274.114 256.398 276.309C256.4 277.838 256.403 279.367 256.407 280.896C256.412 284.1 256.405 287.303 256.391 290.507C256.374 294.607 256.384 298.707 256.402 302.807C256.413 305.965 256.409 309.123 256.401 312.281C256.399 313.792 256.402 315.304 256.409 316.815C256.417 318.931 256.405 321.046 256.388 323.162C256.386 324.364 256.383 325.567 256.381 326.806C255.964 330.303 255.102 332.201 253 335C250.371 336.123 247.839 336.206 245 336C241.733 334.325 241.172 333.517 240 330C239.885 327.804 239.831 325.604 239.807 323.405C239.799 322.739 239.791 322.074 239.782 321.388C239.758 319.189 239.741 316.989 239.727 314.789C239.721 314.037 239.716 313.285 239.71 312.51C239.684 308.529 239.664 304.549 239.65 300.568C239.637 297.276 239.609 293.984 239.568 290.692C239.519 286.714 239.494 282.737 239.487 278.758C239.48 277.244 239.465 275.73 239.441 274.215C239.409 272.094 239.409 269.975 239.416 267.854C239.408 266.648 239.4 265.443 239.392 264.201C240.217 259.857 242.586 256.464 247.133 255.59Z" fill="#595959"/>
<path d="M313.125 263.937C313.788 264.029 314.45 264.121 315.133 264.215C317.734 265.308 318.542 266.593 320 269C320.381 271.763 320.381 271.763 320.388 274.974C320.398 276.179 320.407 277.384 320.417 278.625C320.411 279.923 320.405 281.221 320.398 282.559C320.4 283.909 320.403 285.258 320.407 286.608C320.412 289.435 320.405 292.262 320.391 295.089C320.374 298.705 320.384 302.32 320.402 305.936C320.413 308.724 320.409 311.511 320.401 314.298C320.398 316.277 320.408 318.257 320.417 320.236C320.407 321.444 320.398 322.652 320.388 323.896C320.386 324.957 320.383 326.017 320.381 327.11C319.944 330.424 318.969 332.321 317 335C314.371 336.123 311.839 336.206 309 336C305.733 334.325 305.172 333.517 304 330C303.886 328.049 303.831 326.094 303.807 324.139C303.791 322.934 303.775 321.729 303.758 320.488C303.714 314.987 303.672 309.487 303.65 303.986C303.637 301.082 303.609 298.178 303.568 295.274C303.518 291.763 303.494 288.252 303.487 284.741C303.477 282.757 303.442 280.773 303.408 278.79C303.431 268.775 303.431 268.775 306.399 265.668C309.07 263.955 310.051 263.401 313.125 263.937Z" fill="#595959"/>
</svg>
