<svg xmlns="http://www.w3.org/2000/svg" width="40" height="40" viewBox="0 0 40 40" fill="none">
  <circle cx="20" cy="20" r="20" fill="#4285F4"/>
  <circle cx="20" cy="20" r="15" fill="#34A853"/>
  <circle cx="20" cy="20" r="10" fill="#FBBC04"/>
  <circle cx="20" cy="20" r="5" fill="#EA4335"/>
  <path d="M20 8c6.627 0 12 5.373 12 12s-5.373 12-12 12S8 26.627 8 20 13.373 8 20 8zm0 4c-4.418 0-8 3.582-8 8s3.582 8 8 8 8-3.582 8-8-3.582-8-8-8zm0 4c2.209 0 4 1.791 4 4s-1.791 4-4 4-4-1.791-4-4 1.791-4 4-4z" fill="white" fill-opacity="0.2"/>
</svg>
