<svg xmlns="http://www.w3.org/2000/svg" width="40" height="36" viewBox="0 0 40 36" fill="none">
  <rect width="40" height="35.75" rx="8" fill="#169488"/>
  <path d="M18.89 8.31c.09 0 .18 0 .27.01.19 0 .38 0 .57.01.24 0 .48-.01.72.01.24 0 .48-.01.72-.01.18 0 .36 0 .54.01.09 0 .18-.01.27-.01.71-.01.71-.01.98.26.13.14.25.3.36.46.09.13.18.25.28.37.04.04.08.09.12.13.17.21.35.41.53.62.2.22.39.45.58.68.14.18.29.35.44.52.18.21.36.43.54.65.21.25.42.49.63.74.24.28.49.57.73.86.11.13.23.27.34.41.05.05.1.11.15.16.02.03.05.06.07.09 2.41 2.84 2.41 2.84 2.48 2.92.05.05.1.11.15.16.11.13.23.27.34.41.05.05.1.11.15.16.02.03.05.06.07.09.15.17.3.34.45.51.2.23.4.47.61.71.21.26.44.51.66.77.21.22.4.45.62.68.14.18.29.35.44.52.22.26.44.52.66.78.14.18.29.35.44.52.22.26.44.52.66.78.21.22.4.45.62.68.14.18.29.35.44.52.21.26.42.51.64.77.24.28.49.57.73.86.11.13.23.27.34.41.05.05.1.11.15.16.02.03.05.06.07.09.44.51.87 1.03 1.31 1.54.03.04.03.04.07.08.05.05.1.11.15.16.12.14.24.28.37.42.03.03.06.06.09.09.05.05.11.1.16.15.14.16.18.26.17.47-.02.23-.08.46-.13.69-.02.09-.02.09-.04.18-.04.19-.08.38-.12.57-.03.13-.06.26-.08.39-.06.27-.12.55-.18.82-.08.39-.16.78-.24 1.17-.12.55-.23 1.1-.35 1.64-.01.05-.02.11-.03.16-.01.05-.02.1-.03.15-.01.04-.02.09-.03.13-.02.11-.05.21-.07.32-2.52 0-5.05 0-7.65 0 .12-.61.12-.61.21-.85.19-.52.19-.52.17-1.06-.12-.21-.29-.36-.47-.52-.14-.12-.25-.25-.37-.39-.04-.05-.09-.11-.14-.16-.02-.03-.05-.06-.07-.09-.11-.14-.23-.27-.34-.41-.05-.05-.09-.11-.14-.16-.02-.03-.05-.06-.07-.09-.44-.51-.87-1.03-1.31-1.54-.02-.03-.05-.06-.07-.09-.05-.05-.09-.11-.14-.16-.12-.14-.23-.27-.34-.41-.25-.51-.49-1.02-.73-1.53-.22-.26-.44-.52-.66-.78-.14-.18-.29-.35-.44-.52-.22-.26-.44-.52-.66-.78-.14-.18-.29-.35-.44-.52-.22-.26-.44-.52-.66-.78-.25-.51-.49-1.02-.73-1.53-.11-.13-.23-.27-.34-.41-.05-.05-.09-.11-.14-.16-.02-.03-.05-.06-.07-.09-.93-1.1-.93-1.1-1.86-2.2-.02-.03-.05-.06-.07-.09-.05-.05-.09-.11-.14-.16-.12-.14-.23-.27-.34-.41-.25-.51-.49-1.02-.73-1.53-.22-.26-.44-.52-.66-.78-.14-.18-.29-.35-.44-.52-.22-.26-.44-.52-.66-.78-.14-.18-.29-.35-.44-.52-.22-.26-.44-.52-.66-.78-.25-.51-.49-1.02-.73-1.53-.11-.13-.23-.27-.34-.41-.05-.05-.09-.11-.14-.16-.02-.03-.05-.06-.07-.09-.43-.51-.87-1.03-1.31-1.54-.02-.03-.05-.06-.07-.09-.05-.05-.09-.11-.14-.16-.12-.14-.23-.27-.34-.41-.25-.51-.49-1.02-.73-1.53-.11-.13-.23-.27-.34-.41-.05-.05-.09-.11-.14-.16-.02-.03-.05-.06-.07-.09-.09-.12-.09-.12-.08-.23.05-.23.05-.23.15-.35.06-.07.06-.07.11-.14.05-.07.05-.07.1-.15.07-.11.13-.22.2-.33.03-.04.03-.04.05-.08.17-.27.35-.56.52-.85.08-.15.17-.3.25-.45.03-.04.03-.04.05-.09.27-.47.54-.93.81-1.4.1-.17.2-.34.3-.51.03-.06.07-.12.1-.18.06-.11.13-.22.19-.33.06-.1.12-.2.18-.3.09-.16.09-.16.15-.32.2-.47.46-.52.86-.53z" fill="#169488"/>
</svg>
