<svg width="108" height="25" viewBox="0 0 108 25" fill="none" xmlns="http://www.w3.org/2000/svg">
<path d="M7.06524 24.5162C3.50028 24.5162 0.835213 22.5088 0.835213 19.1515C0.835213 15.2058 4.60784 13.6829 10.1803 13.4752L12.4646 13.406V12.8522C12.4646 11.3293 11.357 10.3256 9.52264 10.3256C7.65364 10.3256 6.68452 11.2947 6.37302 12.6792H1.28516C1.7005 9.01039 4.74629 6.17226 9.52264 6.17226C13.9875 6.17226 17.2756 8.35277 17.2756 12.8176V20.9513C17.2756 22.0242 17.3448 23.5125 17.4486 23.9278V23.9971H12.5338C12.4992 23.5817 12.4992 22.9933 12.4992 22.2665C11.357 23.5471 9.52264 24.5162 7.06524 24.5162ZM8.44969 20.6744C10.8033 20.6744 12.4646 18.9784 12.4646 17.0056V16.2788L11.0455 16.348C7.79208 16.5556 6.09613 17.2825 6.09613 18.8054C6.09613 19.9476 7.09986 20.6744 8.44969 20.6744ZM25.6984 23.9971H20.5413V10.7063H17.3917V6.69143H20.6106V3.81869C20.6106 1.18824 21.7873 0.0114536 24.4178 0.0114536H29.5057V4.16481H26.7021C25.8022 4.16481 25.5254 4.4417 25.5254 5.27237V6.69143H29.5057V10.7063H25.6984V23.9971ZM37.697 24.5509C32.4361 24.5509 28.352 20.6398 28.352 15.3443C28.352 10.0141 32.4361 6.13765 37.697 6.13765C42.9233 6.13765 47.0421 10.0141 47.0421 15.3443C47.0421 20.6398 42.9233 24.5509 37.697 24.5509ZM37.697 19.7745C40.0506 19.7745 41.6773 17.8363 41.6773 15.3443C41.6773 12.783 40.0506 10.914 37.697 10.914C35.3088 10.914 33.6821 12.783 33.6821 15.3443C33.6821 17.8363 35.3088 19.7745 37.697 19.7745ZM59.0618 6.37993H59.3041V12.0562C58.8541 11.987 58.508 11.9523 58.058 11.9523C55.566 11.9523 53.074 13.0945 53.074 16.5903V23.9971H47.8131V6.69143H52.9356V9.63339C54.2162 7.59132 56.5698 6.37993 59.0618 6.37993ZM67.5122 24.5509C62.2513 24.5509 58.1671 20.6398 58.1671 15.3443C58.1671 10.0141 62.2513 6.13765 67.5122 6.13765C72.7385 6.13765 76.8572 10.0141 76.8572 15.3443C76.8572 20.6398 72.7385 24.5509 67.5122 24.5509ZM67.5122 19.7745C69.8658 19.7745 71.4925 17.8363 71.4925 15.3443C71.4925 12.783 69.8658 10.914 67.5122 10.914C65.124 10.914 63.4973 12.783 63.4973 15.3443C63.4973 17.8363 65.124 19.7745 67.5122 19.7745ZM83.6852 23.9971H77.3514V18.0093H83.6852V23.9971ZM90.4267 24.5162C86.8618 24.5162 84.1967 22.5088 84.1967 19.1515C84.1967 15.2058 87.9693 13.6829 93.5418 13.4752L95.8261 13.406V12.8522C95.8261 11.3293 94.7185 10.3256 92.8841 10.3256C91.0151 10.3256 90.046 11.2947 89.7345 12.6792H84.6467C85.062 9.01039 88.1078 6.17226 92.8841 6.17226C97.349 6.17226 100.637 8.35277 100.637 12.8176V20.9513C100.637 22.0242 100.706 23.5125 100.81 23.9278V23.9971H95.8953C95.8607 23.5817 95.8607 22.9933 95.8607 22.2665C94.7185 23.5471 92.8841 24.5162 90.4267 24.5162ZM91.8112 20.6744C94.1648 20.6744 95.8261 18.9784 95.8261 17.0056V16.2788L94.407 16.348C91.1536 16.5556 89.4576 17.2825 89.4576 18.8054C89.4576 19.9476 90.4614 20.6744 91.8112 20.6744ZM107.567 4.7532H102.306V0.115286H107.567V4.7532ZM107.567 23.9971H102.306V6.69143H107.567V23.9971Z" fill="url(#paint0_linear_9344_48677)"/>
<defs>
<linearGradient id="paint0_linear_9344_48677" x1="104.564" y1="37.9971" x2="54.5554" y2="70.4792" gradientUnits="userSpaceOnUse">
<stop stop-color="#025A94"/>
<stop offset="1" stop-color="#00365A"/>
</linearGradient>
</defs>
</svg>
