<svg width="121" height="82" viewBox="0 0 121 82" fill="none" xmlns="http://www.w3.org/2000/svg">
<path d="M12.0615 52.4807C11.0232 52.4807 10.0656 52.2614 9.18878 51.823C8.31196 51.3616 7.6082 50.727 7.07749 49.9194C6.56986 49.0887 6.31604 48.1427 6.31604 47.0813C6.31604 45.7891 6.65062 44.7623 7.31977 44.0009C8.012 43.2394 8.80806 42.7087 9.70795 42.4088C10.6078 42.0857 11.6116 41.8319 12.7191 41.6473L13.9305 41.4397C14.5997 41.3243 15.1304 41.1974 15.5226 41.0589C15.938 40.8974 16.2495 40.6667 16.4571 40.3667C16.6879 40.0667 16.8033 39.6629 16.8033 39.1553C16.8033 38.4862 16.6071 37.967 16.2149 37.5978C15.8226 37.2055 15.2458 37.0094 14.4843 37.0094C13.7229 37.0094 13.0999 37.194 12.6153 37.5632C12.1538 37.9093 11.8538 38.3939 11.7154 39.0169H7.04288C7.25055 37.9093 7.66588 36.9633 8.28889 36.1787C8.93496 35.3711 9.77717 34.7597 10.8155 34.3443C11.8769 33.9059 13.1229 33.6867 14.5535 33.6867C16.0303 33.6867 17.2763 33.9175 18.2915 34.379C19.3068 34.8174 20.0683 35.4634 20.5759 36.3172C21.0835 37.1479 21.3373 38.14 21.3373 39.2938V47.7043C21.3373 48.3734 21.3835 49.0887 21.4758 49.8502C21.5912 50.6116 21.7296 51.3269 21.8911 51.9961H17.2532C17.2301 51.7423 17.1955 51.5 17.1494 51.2693C17.1032 51.0616 17.0686 50.8424 17.0455 50.6116C17.0225 50.3809 16.9994 50.1502 16.9763 49.9194C16.5379 50.6809 15.9034 51.3039 15.0727 51.7884C14.242 52.2499 13.2383 52.4807 12.0615 52.4807ZM13.4114 48.9157C14.0574 48.9157 14.6343 48.7542 15.1419 48.4311C15.6496 48.085 16.0418 47.6235 16.3187 47.0467C16.6187 46.4698 16.7687 45.8122 16.7687 45.0738V43.101C16.5379 43.401 16.1572 43.6663 15.6265 43.8971C15.0958 44.1278 14.4497 44.3124 13.6882 44.4508C12.7653 44.6354 12.0846 44.9123 11.6462 45.2815C11.2308 45.6276 11.0232 46.1353 11.0232 46.8044C11.0232 47.4274 11.2424 47.935 11.6808 48.3273C12.1423 48.7196 12.7191 48.9157 13.4114 48.9157ZM25.3916 37.8401H20.7537V34.2059H25.3916V33.1329C25.3916 31.1486 26.0377 29.6834 27.3298 28.7373C28.622 27.7682 30.4218 27.2836 32.7292 27.2836C33.9521 27.2836 34.9443 27.3875 35.7057 27.5951V31.1947C34.7828 31.0793 34.0559 31.0217 33.5252 31.0217C32.4177 31.0217 31.587 31.2178 31.0332 31.61C30.5025 32.0023 30.2372 32.6253 30.2372 33.4791V34.2059H36.0519V37.8401H30.2372V51.9961H25.3916V37.8401ZM42.702 52.5153C41.2252 52.5153 39.8869 52.123 38.687 51.3385C37.5103 50.5309 36.5873 49.4118 35.9181 47.9812C35.249 46.5506 34.9144 44.9239 34.9144 43.101C34.9144 41.2781 35.249 39.6514 35.9181 38.2208C36.5873 36.7902 37.5103 35.6826 38.687 34.8981C39.8869 34.0905 41.2252 33.6867 42.702 33.6867C44.1787 33.6867 45.5055 34.0905 46.6822 34.8981C47.8821 35.6826 48.8166 36.7902 49.4858 38.2208C50.1549 39.6514 50.4895 41.2781 50.4895 43.101C50.4895 44.9239 50.1549 46.5506 49.4858 47.9812C48.8166 49.4118 47.8821 50.5309 46.6822 51.3385C45.5055 52.123 44.1787 52.5153 42.702 52.5153ZM42.702 48.708C43.325 48.708 43.8557 48.5004 44.2941 48.085C44.7325 47.6466 45.0555 47.0121 45.2632 46.1814C45.4939 45.3277 45.6093 44.3009 45.6093 43.101C45.6093 41.9011 45.4939 40.8859 45.2632 40.0552C45.0555 39.2015 44.7325 38.5669 44.2941 38.1516C43.8557 37.7132 43.325 37.494 42.702 37.494C42.0789 37.494 41.5482 37.7132 41.1098 38.1516C40.6714 38.5669 40.3368 39.2015 40.1061 40.0552C39.8984 40.8859 39.7946 41.9011 39.7946 43.101C39.7946 44.3009 39.8984 45.3277 40.1061 46.1814C40.3368 47.0121 40.6714 47.6466 41.1098 48.085C41.5482 48.5004 42.0789 48.708 42.702 48.708ZM51.4633 34.2059H56.1359V38.3246C56.6666 36.6171 57.5665 35.3827 58.8355 34.6212C60.1277 33.8367 61.8006 33.5252 63.8542 33.6867V38.1516C63.0927 38.0824 62.412 38.0593 61.8121 38.0824C61.2122 38.0824 60.6699 38.1516 60.1854 38.29C58.824 38.6592 57.8203 39.4207 57.1742 40.5744C56.5512 41.7281 56.2397 43.2164 56.2397 45.0392V51.9961H51.4633V34.2059ZM71.3003 52.5153C69.8236 52.5153 68.4853 52.123 67.2854 51.3385C66.1086 50.5309 65.1857 49.4118 64.5165 47.9812C63.8474 46.5506 63.5128 44.9239 63.5128 43.101C63.5128 41.2781 63.8474 39.6514 64.5165 38.2208C65.1857 36.7902 66.1086 35.6826 67.2854 34.8981C68.4853 34.0905 69.8236 33.6867 71.3003 33.6867C72.7771 33.6867 74.1038 34.0905 75.2806 34.8981C76.4805 35.6826 77.415 36.7902 78.0841 38.2208C78.7533 39.6514 79.0879 41.2781 79.0879 43.101C79.0879 44.9239 78.7533 46.5506 78.0841 47.9812C77.415 49.4118 76.4805 50.5309 75.2806 51.3385C74.1038 52.123 72.7771 52.5153 71.3003 52.5153ZM71.3003 48.708C71.9233 48.708 72.454 48.5004 72.8924 48.085C73.3308 47.6466 73.6539 47.0121 73.8616 46.1814C74.0923 45.3277 74.2077 44.3009 74.2077 43.101C74.2077 41.9011 74.0923 40.8859 73.8616 40.0552C73.6539 39.2015 73.3308 38.5669 72.8924 38.1516C72.454 37.7132 71.9233 37.494 71.3003 37.494C70.6773 37.494 70.1466 37.7132 69.7082 38.1516C69.2698 38.5669 68.9352 39.2015 68.7045 40.0552C68.4968 40.8859 68.393 41.9011 68.393 43.101C68.393 44.3009 68.4968 45.3277 68.7045 46.1814C68.9352 47.0121 69.2698 47.6466 69.7082 48.085C70.1466 48.5004 70.6773 48.708 71.3003 48.708ZM78.6772 46.4583H84.215V51.9961H78.6772V46.4583ZM89.5418 52.4807C88.5035 52.4807 87.5459 52.2614 86.6691 51.823C85.7922 51.3616 85.0885 50.727 84.5578 49.9194C84.0501 49.0887 83.7963 48.1427 83.7963 47.0813C83.7963 45.7891 84.1309 44.7623 84.8001 44.0009C85.4923 43.2394 86.2883 42.7087 87.1882 42.4088C88.0881 42.0857 89.0919 41.8319 90.1994 41.6473L91.4108 41.4397C92.08 41.3243 92.6107 41.1974 93.0029 41.0589C93.4183 40.8974 93.7298 40.6667 93.9374 40.3667C94.1682 40.0667 94.2835 39.6629 94.2835 39.1553C94.2835 38.4862 94.0874 37.967 93.6952 37.5978C93.3029 37.2055 92.726 37.0094 91.9646 37.0094C91.2031 37.0094 90.5801 37.194 90.0956 37.5632C89.6341 37.9093 89.3341 38.3939 89.1957 39.0169H84.5232C84.7308 37.9093 85.1462 36.9633 85.7692 36.1787C86.4152 35.3711 87.2575 34.7597 88.2958 34.3443C89.3572 33.9059 90.6032 33.6867 92.0338 33.6867C93.5106 33.6867 94.7566 33.9175 95.7718 34.379C96.7871 34.8174 97.5485 35.4634 98.0562 36.3172C98.5638 37.1479 98.8176 38.14 98.8176 39.2938V47.7043C98.8176 48.3734 98.8638 49.0887 98.9561 49.8502C99.0714 50.6116 99.2099 51.3269 99.3714 51.9961H94.7335C94.7104 51.7423 94.6758 51.5 94.6297 51.2693C94.5835 51.0616 94.5489 50.8424 94.5258 50.6116C94.5028 50.3809 94.4797 50.1502 94.4566 49.9194C94.0182 50.6809 93.3837 51.3039 92.553 51.7884C91.7223 52.2499 90.7186 52.4807 89.5418 52.4807ZM90.8916 48.9157C91.5377 48.9157 92.1146 48.7542 92.6222 48.4311C93.1298 48.085 93.5221 47.6235 93.799 47.0467C94.099 46.4698 94.2489 45.8122 94.2489 45.0738V43.101C94.0182 43.401 93.6375 43.6663 93.1068 43.8971C92.5761 44.1278 91.93 44.3124 91.1685 44.4508C90.2456 44.6354 89.5649 44.9123 89.1265 45.2815C88.7111 45.6276 88.5035 46.1353 88.5035 46.8044C88.5035 47.4274 88.7227 47.935 89.1611 48.3273C89.6226 48.7196 90.1994 48.9157 90.8916 48.9157ZM103.529 34.2059H108.237V51.9961H103.529V34.2059ZM103.01 26.9721H108.721V31.9908H103.01V26.9721Z" fill="white"/>
</svg>
