<svg width="110" height="33" viewBox="0 0 110 33" fill="none" xmlns="http://www.w3.org/2000/svg">
<path d="M7.26837 27.92C3.70341 27.92 1.03834 25.9126 1.03834 22.5553C1.03834 18.6096 4.81097 17.0867 10.3834 16.879L12.6677 16.8098V16.256C12.6677 14.7332 11.5602 13.7294 9.72577 13.7294C7.85676 13.7294 6.88764 14.6985 6.57614 16.083H1.48829C1.90362 12.4142 4.94941 9.57607 9.72577 9.57607C14.1906 9.57607 17.4787 11.7566 17.4787 16.2214V24.3551C17.4787 25.428 17.5479 26.9163 17.6518 27.3317V27.4009H12.737C12.7023 26.9855 12.7023 26.3972 12.7023 25.6703C11.5602 26.9509 9.72577 27.92 7.26837 27.92ZM8.65282 24.0782C11.0064 24.0782 12.6677 22.3822 12.6677 20.4094V19.6826L11.2487 19.7518C7.99521 19.9595 6.29925 20.6863 6.29925 22.2092C6.29925 23.3514 7.30298 24.0782 8.65282 24.0782ZM25.9015 27.4009H20.7445V14.1101H17.5948V10.0952H20.8137V7.2225C20.8137 4.59204 21.9905 3.41526 24.6209 3.41526H29.7088V7.56862H26.9053C26.0054 7.56862 25.7285 7.84551 25.7285 8.67618V10.0952H29.7088V14.1101H25.9015V27.4009ZM37.9001 27.9547C32.6392 27.9547 28.5551 24.0436 28.5551 18.7481C28.5551 13.4179 32.6392 9.54146 37.9001 9.54146C43.1265 9.54146 47.2452 13.4179 47.2452 18.7481C47.2452 24.0436 43.1265 27.9547 37.9001 27.9547ZM37.9001 23.1783C40.2537 23.1783 41.8804 21.2401 41.8804 18.7481C41.8804 16.1868 40.2537 14.3178 37.9001 14.3178C35.512 14.3178 33.8852 16.1868 33.8852 18.7481C33.8852 21.2401 35.512 23.1783 37.9001 23.1783ZM59.2649 9.78374H59.5072V15.46C59.0572 15.3908 58.7111 15.3562 58.2612 15.3562C55.7692 15.3562 53.2771 16.4983 53.2771 19.9941V27.4009H48.0162V10.0952H53.1387V13.0372C54.4193 10.9951 56.7729 9.78374 59.2649 9.78374ZM67.7153 27.9547C62.4544 27.9547 58.3703 24.0436 58.3703 18.7481C58.3703 13.4179 62.4544 9.54146 67.7153 9.54146C72.9416 9.54146 77.0604 13.4179 77.0604 18.7481C77.0604 24.0436 72.9416 27.9547 67.7153 27.9547ZM67.7153 23.1783C70.0689 23.1783 71.6956 21.2401 71.6956 18.7481C71.6956 16.1868 70.0689 14.3178 67.7153 14.3178C65.3271 14.3178 63.7004 16.1868 63.7004 18.7481C63.7004 21.2401 65.3271 23.1783 67.7153 23.1783ZM83.8884 27.4009H77.5545V21.4131H83.8884V27.4009ZM90.6299 27.92C87.0649 27.92 84.3998 25.9126 84.3998 22.5553C84.3998 18.6096 88.1725 17.0867 93.7449 16.879L96.0292 16.8098V16.256C96.0292 14.7332 94.9217 13.7294 93.0873 13.7294C91.2183 13.7294 90.2491 14.6985 89.9376 16.083H84.8498C85.2651 12.4142 88.3109 9.57607 93.0873 9.57607C97.5521 9.57607 100.84 11.7566 100.84 16.2214V24.3551C100.84 25.428 100.909 26.9163 101.013 27.3317V27.4009H96.0984C96.0638 26.9855 96.0638 26.3972 96.0638 25.6703C94.9217 26.9509 93.0873 27.92 90.6299 27.92ZM92.0143 24.0782C94.3679 24.0782 96.0292 22.3822 96.0292 20.4094V19.6826L94.6102 19.7518C91.3567 19.9595 89.6607 20.6863 89.6607 22.2092C89.6607 23.3514 90.6645 24.0782 92.0143 24.0782ZM107.77 8.15701H102.509V3.51909H107.77V8.15701ZM107.77 27.4009H102.509V10.0952H107.77V27.4009Z" fill="url(#paint0_radial_12089_21245)"/>
<defs>
<radialGradient id="paint0_radial_12089_21245" cx="0" cy="0" r="1" gradientTransform="matrix(-61 40.8 -75.9498 -29.8284 85.2012 -4.03771)" gradientUnits="userSpaceOnUse">
<stop stop-color="white"/>
<stop offset="0.509226" stop-color="#F6F8F9"/>
<stop offset="1" stop-color="#B8C9D1"/>
</radialGradient>
</defs>
</svg>
